<?xml version="1.0" encoding="UTF-8" standalone="no"?>
<!-- Created with Inkscape (http://www.inkscape.org/) -->

<svg
   xmlns:dc="http://purl.org/dc/elements/1.1/"
   xmlns:cc="http://creativecommons.org/ns#"
   xmlns:rdf="http://www.w3.org/1999/02/22-rdf-syntax-ns#"
   xmlns:svg="http://www.w3.org/2000/svg"
   xmlns="http://www.w3.org/2000/svg"
   xmlns:sodipodi="http://sodipodi.sourceforge.net/DTD/sodipodi-0.dtd"
   xmlns:inkscape="http://www.inkscape.org/namespaces/inkscape"
   width="499.99982"
   height="523.3371"
   id="svg2906"
   version="1.1"
   inkscape:version="0.47pre4 r22446"
   sodipodi:docname="lilongwe.svg"
   onload="RunScript(evt)">
  <defs
     id="defs2908">
    <inkscape:perspective
       sodipodi:type="inkscape:persp3d"
       inkscape:vp_x="0 : 526.18109 : 1"
       inkscape:vp_y="0 : 1000 : 0"
       inkscape:vp_z="744.09448 : 526.18109 : 1"
       inkscape:persp3d-origin="372.04724 : 350.78739 : 1"
       id="perspective2914" />
    <inkscape:perspective
       id="perspective2901"
       inkscape:persp3d-origin="0.5 : 0.33333333 : 1"
       inkscape:vp_z="1 : 0.5 : 1"
       inkscape:vp_y="0 : 1000 : 0"
       inkscape:vp_x="0 : 0.5 : 1"
       sodipodi:type="inkscape:persp3d" />
  </defs>
  <sodipodi:namedview
     id="base"
     pagecolor="#ffffff"
     bordercolor="#666666"
     borderopacity="1.0"
     inkscape:pageopacity="0.0"
     inkscape:pageshadow="2"
     inkscape:zoom="0.7"
     inkscape:cx="180.19511"
     inkscape:cy="257.49194"
     inkscape:document-units="px"
     inkscape:current-layer="layer1"
     showgrid="false"
     inkscape:showpageshadow="false"
     inkscape:window-width="1110"
     inkscape:window-height="611"
     inkscape:window-x="0"
     inkscape:window-y="41"
     inkscape:window-maximized="0" />
  <metadata
     id="metadata2911">
    <rdf:RDF>
      <cc:Work
         rdf:about="">
        <dc:format>image/svg+xml</dc:format>
        <dc:type
           rdf:resource="http://purl.org/dc/dcmitype/StillImage" />
        <dc:title />
      </cc:Work>
    </rdf:RDF>
  </metadata>
  <script
     id="script2814"
     type="text/ecmascript">var g_element;
var SVGDoc;
var SVGRoot;
function RunScript(LoadEvent) {
	top.SVGsetDimension	= setDimension;
	top.SVGsetScale		= setScale;
	SVGDoc			= LoadEvent.target.ownerDocument;
	g_element		= SVGDoc.getElementById(&quot;layer1&quot;);
}

function setDimension(w,h) {
	SVGDoc.documentElement.setAttribute(&quot;width&quot;, w);
	SVGDoc.documentElement.setAttribute(&quot;height&quot;, h);
}

function setScale(sw, sh) {
	g_element.setAttribute(&quot;transform&quot;, &quot;scale(&quot; + sw + &quot; &quot; + sh +&quot;)&quot;);
}
</script>
  <g
     inkscape:label="Layer 1"
     inkscape:groupmode="layer"
     id="layer1"
     transform="translate(-18.571511,-29.265076)">
    <path
       style="fill:#76684f;fill-opacity:0.94117647;stroke:#000000;stroke-width:4.19399977;stroke-miterlimit:4;stroke-opacity:1;stroke-dasharray:none;display:inline"
       d="m 209.79049,541.23506 c -6.67678,-13.2267 -9.82219,-17.01428 -21.03751,-25.33265 -5.47065,-4.05758 -12.45258,-10.43555 -15.51533,-14.17326 -8.31815,-10.1512 -14.01079,-15.17125 -23.96647,-21.1349 -18.70099,-11.2022 -19.96332,-12.35498 -23.27791,-21.25673 -7.15287,-19.20988 -29.224776,-57.31552 -43.634576,-75.33214 -9.96478,-12.45895 -17.84954,-27.6448 -18.81884,-36.24467 -0.59214,-5.25344 0.0465,-7.91927 3.17699,-13.26104 5.07478,-8.65946 4.93886,-12.89747 -0.73608,-22.95292 l -4.65426,-8.24687 5.40317,-7.84512 c 2.97174,-4.31484 5.40317,-9.54178 5.40317,-11.61547 0,-2.07373 -3.14256,-8.80814 -6.98344,-14.96537 -3.84089,-6.15724 -8.61908,-15.20493 -10.61815,-20.10592 -4.46155,-10.93785 -10.06653,-19.20971 -21.75829,-32.11079 -14.0167,-15.46659 -14.26087,-16.39177 -8.77102,-33.23569 2.5302,-7.76309 6.0583,-17.97305 7.84022,-22.68879 3.03716,-8.03771 3.08695,-8.80738 0.79559,-12.3044 -3.55628,-5.42754 -3.09848,-7.85045 3.39344,-17.96076 3.21074,-5.00026 6.31513,-10.77648 6.89864,-12.83599 0.58354,-2.05952 3.68579,-6.19431 6.8939,-9.18844 3.86563,-3.60775 5.83291,-6.74758 5.83291,-9.309313 0,-4.85859 6.55566,-12.41521 17.02741,-19.62739 4.43609,-3.05528 8.89105,-7.35393 9.89986,-9.55256 1.00885,-2.19863 2.19258,-10.737767 2.63051,-18.975867 1.02311,-19.24532 1.67133,-20.51805 9.81762,-19.2759 3.46968,0.52907 7.137566,1.6153 8.150856,2.41386 1.27823,1.0073 1.839,7.02165 1.83145,19.64178 -0.0126,19.225487 0.48985,21.999187 6.84969,37.896367 3.40204,8.503703 3.86085,11.366313 3.06346,19.112963 -1.22706,11.92045 1.97203,18.85218 9.59198,20.78374 2.8627,0.72563 7.70916,3.58178 10.76989,6.34701 3.11802,2.81689 8.02111,5.48839 11.1507,6.07549 8.21365,1.5409 36.71975,-0.43658 44.24828,-3.06953 3.58241,-1.25286 12.5797,-3.33401 19.99398,-4.62478 21.07157,-3.66839 36.86293,-8.03398 43.92921,-12.14445 3.56584,-2.07427 6.78632,-3.46846 7.1566,-3.09818 0.37033,0.37032 -0.003,2.45148 -0.82922,4.6249 -1.96217,5.16097 -0.39717,12.66433 3.02315,14.49485 1.76166,0.94284 3.03771,3.93102 3.6551,8.55936 2.1215,15.9046 6.70282,20.74884 18.36057,19.41421 5.23046,-0.59881 7.77768,-0.19041 9.72979,1.55951 4.45823,3.99669 18.27388,4.29282 25.76365,0.55226 5.8934,-2.94331 7.34546,-3.07416 17.86988,-1.61035 6.30038,0.87632 14.97888,3.23382 19.28554,5.23889 4.30667,2.00508 10.08754,3.65216 12.84635,3.66021 8.19553,0.0252 14.69906,4.21721 26.06755,16.8076 5.91172,6.54719 11.97753,12.56167 13.47946,13.36547 2.02546,1.08397 4.74765,0.4935 10.53838,-2.28586 5.12679,-2.46066 13.58104,-4.52953 24.6224,-6.02538 16.51659,-2.23763 26.22692,-5.62515 30.34381,-10.58573 4.5026,-5.42527 7.31547,-5.66935 14.3224,-1.24266 3.66571,2.31585 6.66613,4.82805 6.6676,5.58275 0.001,0.75466 -3.03046,6.23852 -6.7376,12.18639 -7.79131,12.50068 -8.4243,16.58092 -2.89813,18.68195 6.23583,2.37087 10.32957,1.72509 19.4382,-3.06635 4.73344,-2.48994 8.84899,-4.28435 9.14575,-3.98759 0.29693,0.29651 -5.15782,7.13732 -12.12126,15.20128 -6.96344,8.06401 -13.0552,16.45757 -13.5373,18.65242 -0.48205,2.19486 -3.54999,7.92981 -6.81765,12.7444 -3.26766,4.81455 -5.95148,10.51632 -5.96411,12.67062 -0.0294,5.33313 -1.31786,6.94758 -7.63123,9.57592 -4.04023,1.68197 -8.82353,6.78913 -18.9187,20.19965 -7.43118,9.87167 -14.29401,20.32035 -15.25073,23.21928 -0.95676,2.89897 -5.08858,9.09797 -9.18181,13.77555 -7.66886,8.76364 -11.90351,15.59106 -11.90351,19.19181 0,5.8978 -13.49326,11.77148 -31.99735,13.9285 -15.34244,1.7885 -24.29095,13.04669 -26.57773,33.43759 -0.68793,6.13471 -2.05604,11.65166 -3.04018,12.25991 -0.98411,0.6082 -4.87943,1.55519 -8.65619,2.10438 -3.77681,0.5492 -8.35977,1.95706 -10.18434,3.12859 -2.12393,1.3637 -7.41344,2.13002 -14.70237,2.13002 -6.2617,0 -12.85712,0.76224 -14.65653,1.69388 -1.7994,0.9316 -7.98986,6.2144 -13.75651,11.73945 -12.52895,12.00412 -20.25644,17.21872 -28.85295,19.47036 -11.08678,2.90392 -20.80894,13.87571 -26.63142,30.05438 -1.32444,3.68014 -3.6725,14.68249 -5.21788,24.4497 -2.48528,15.70732 -3.45253,18.69168 -8.3741,25.83759 -3.06036,4.44351 -6.11656,8.07907 -6.79157,8.07907 -0.67506,0 -3.33309,-4.17154 -5.90686,-9.2701 l 0,0 z"
       id="lilongwe"
       onclick="alert(this.style[0].length);"
       onmouseover="setAttribute('fill-opacity','0.50')"
       onmouseout="setAttribute('fill-opacity','1.0')"
       onload="setAttribute('cursor','pointer')"
       inkscape:label="#Lilongwe" />
  </g>
</svg>
