<?xml version="1.0" encoding="UTF-8" standalone="no"?>
<!-- Created with Inkscape (http://www.inkscape.org/) -->

<svg
   xmlns:dc="http://purl.org/dc/elements/1.1/"
   xmlns:cc="http://creativecommons.org/ns#"
   xmlns:rdf="http://www.w3.org/1999/02/22-rdf-syntax-ns#"
   xmlns:svg="http://www.w3.org/2000/svg"
   xmlns="http://www.w3.org/2000/svg"
   xmlns:sodipodi="http://sodipodi.sourceforge.net/DTD/sodipodi-0.dtd"
   xmlns:inkscape="http://www.inkscape.org/namespaces/inkscape"
   width="392.974"
   height="500.00064"
   id="svg3861"
   version="1.1"
   inkscape:version="0.47pre4 r22446"
   sodipodi:docname="mangochi.svg"
   onload="RunScript(evt)">
  <defs
     id="defs3863">
    <inkscape:perspective
       sodipodi:type="inkscape:persp3d"
       inkscape:vp_x="0 : 526.18109 : 1"
       inkscape:vp_y="0 : 1000 : 0"
       inkscape:vp_z="744.09448 : 526.18109 : 1"
       inkscape:persp3d-origin="372.04724 : 350.78739 : 1"
       id="perspective3869" />
    <inkscape:perspective
       id="perspective3854"
       inkscape:persp3d-origin="0.5 : 0.33333333 : 1"
       inkscape:vp_z="1 : 0.5 : 1"
       inkscape:vp_y="0 : 1000 : 0"
       inkscape:vp_x="0 : 0.5 : 1"
       sodipodi:type="inkscape:persp3d" />
  </defs>
  <sodipodi:namedview
     id="base"
     pagecolor="#ffffff"
     bordercolor="#666666"
     borderopacity="1.0"
     inkscape:pageopacity="0.0"
     inkscape:pageshadow="2"
     inkscape:zoom="0.35"
     inkscape:cx="-194.94168"
     inkscape:cy="-11.440771"
     inkscape:document-units="px"
     inkscape:current-layer="layer1"
     showgrid="false"
     inkscape:window-width="868"
     inkscape:window-height="512"
     inkscape:window-x="0"
     inkscape:window-y="41"
     inkscape:window-maximized="0"
     units="m" />
  <metadata
     id="metadata3866">
    <rdf:RDF>
      <cc:Work
         rdf:about="">
        <dc:format>image/svg+xml</dc:format>
        <dc:type
           rdf:resource="http://purl.org/dc/dcmitype/StillImage" />
        <dc:title />
      </cc:Work>
    </rdf:RDF>
  </metadata>
  <script
     id="script2816"
     type="text/ecmascript">var g_element;
var SVGDoc;
var SVGRoot;
function RunScript(LoadEvent) {
	top.SVGsetDimension	= setDimension;
	top.SVGsetScale		= setScale;
	SVGDoc			= LoadEvent.target.ownerDocument;
	g_element		= SVGDoc.getElementById(&quot;layer1&quot;);
}

function setDimension(w,h) {
	SVGDoc.documentElement.setAttribute(&quot;width&quot;, w);
	SVGDoc.documentElement.setAttribute(&quot;height&quot;, h);
}

function setScale(sw, sh) {
	g_element.setAttribute(&quot;transform&quot;, &quot;scale(&quot; + sw + &quot; &quot; + sh +&quot;)&quot;);
}
</script>
  <g
     inkscape:label="Layer 1"
     inkscape:groupmode="layer"
     id="layer1"
     transform="translate(-61.370248,-20.933199)">
    <g
       transform="matrix(3.3413705,0,0,3.3413705,-1394.0769,-1792.3851)"
       id="g3182"
       style="fill:#76684f;fill-opacity:0.94117647;stroke:#000000;stroke-opacity:1;display:inline">
      <path
         id="path3127"
         d="m 514.88676,691.17064 c -1.57143,-0.37937 -4.63079,-2.60082 -6.79859,-4.93655 -4.43136,-4.77465 -8.08401,-4.82691 -10.41619,-0.14902 -1.45815,2.92476 -1.79881,2.99495 -4.69399,0.96708 -2.8583,-2.00202 -3.43809,-1.9377 -6.87056,0.76229 -2.85476,2.24555 -5.82188,2.94883 -12.44106,2.94883 l -8.69223,0 -11.11512,-11.31083 c -8.76069,-8.91495 -11.11512,-12.19668 -11.11512,-15.49288 0,-2.30012 -1.17452,-5.24497 -2.61004,-6.5441 -1.7491,-1.58291 -2.4104,-3.72236 -2.0048,-6.48593 0.33289,-2.26812 -0.13534,-5.50768 -1.04052,-7.19902 -2.26598,-4.23402 -0.6463,-8.30441 4.32803,-10.87674 3.65452,-1.88982 4.18448,-2.95133 4.18448,-8.38151 0,-4.84339 0.70288,-6.68434 3.18012,-8.32916 2.83565,-1.8828 2.99039,-2.52793 1.42857,-5.95575 -0.96335,-2.11433 -1.75155,-4.85698 -1.75155,-6.09479 0,-4.64952 4.29232,1.25371 6.54436,9.00046 1.2264,4.21864 2.94551,7.67025 3.82026,7.67025 4.65948,0 14.22833,6.42359 16.71676,11.222 3.27004,6.30558 16.38644,20.20657 19.06608,20.20657 2.65632,0 8.13825,-6.08335 8.13825,-9.03111 0,-1.33012 -1.58008,-5.46726 -3.51129,-9.19364 -6.1555,-11.87738 -9.34585,-20.07979 -9.34585,-24.02825 0,-2.11108 -1.21637,-5.84278 -2.70304,-8.29266 -1.48667,-2.44989 -3.16371,-6.70434 -3.72675,-9.45434 -0.56305,-2.75 -2.30428,-8.02005 -3.86941,-11.71123 -1.56513,-3.69117 -2.62024,-7.36059 -2.34468,-8.15425 0.27557,-0.79366 4.78971,3.83353 10.03143,10.28266 5.24173,6.44912 14.16618,16.86854 19.83212,23.15425 5.66595,6.28571 13.64907,16.57143 17.74027,22.85714 4.09121,6.28572 12.41819,17.53572 18.5044,25 6.35154,7.78969 10.25302,13.6849 9.1579,13.83779 -1.04937,0.14649 -5.04224,0.68013 -8.87303,1.18585 -7.91619,1.04507 -13.74921,5.73711 -13.74921,11.05976 0,1.92087 -2.01461,5.30876 -4.71087,7.92208 -4.774,4.62715 -5.19906,4.77359 -10.28913,3.54475 l 0,0 z"
         style="fill:#76684f;fill-opacity:0.94117647;stroke:#000000;stroke-opacity:1" />
      <path
         id="path3171"
         d="m 450.49974,563.15725 c -0.48229,-1.25682 -0.33537,-6.26428 0.32649,-11.1277 l 1.20339,-8.84256 8.38992,9.56488 c 4.61446,5.26069 8.05714,9.89767 7.6504,10.30441 -0.40674,0.40674 -4.32913,1.11 -8.71642,1.56281 -6.50037,0.6709 -8.13921,0.40031 -8.85378,-1.46184 l 0,0 z"
         style="fill:#76684f;fill-opacity:0.94117647;stroke:#000000;stroke-opacity:1" />
    </g>
  </g>
</svg>
