<?xml version="1.0" encoding="UTF-8" standalone="no"?>
<!-- Created with Inkscape (http://www.inkscape.org/) -->

<svg
   xmlns:dc="http://purl.org/dc/elements/1.1/"
   xmlns:cc="http://creativecommons.org/ns#"
   xmlns:rdf="http://www.w3.org/1999/02/22-rdf-syntax-ns#"
   xmlns:svg="http://www.w3.org/2000/svg"
   xmlns="http://www.w3.org/2000/svg"
   xmlns:xlink="http://www.w3.org/1999/xlink"
   xmlns:sodipodi="http://sodipodi.sourceforge.net/DTD/sodipodi-0.dtd"
   xmlns:inkscape="http://www.inkscape.org/namespaces/inkscape"
   width="375.74463"
   height="924.08624"
   id="malawi"
   version="1.1"
   inkscape:version="0.47pre4 r22446"
   sodipodi:docname="mw.svg"
   style="display:inline"
   onload="SetParams(); RunScript(evt);">
  <metadata
     id="metadata2910">
    <rdf:RDF>
      <cc:Work>
        <dc:format>image/svg+xml</dc:format>
        <dc:type
           rdf:resource="http://purl.org/dc/dcmitype/StillImage" />
        <dc:title />
      </cc:Work>
    </rdf:RDF>
  </metadata>
  <script
     id="script2908"
     type="text/ecmascript">var g_element;
var SVGDoc;
var SVGRoot;
function RunScript(LoadEvent) {
	top.SVGsetDimension	= setDimension;
	top.SVGsetScale		= setScale;
	SVGDoc			= LoadEvent.target.ownerDocument;
	g_element		= SVGDoc.getElementById(&quot;layer1&quot;);
}

function setDimension(w,h) {
	SVGDoc.documentElement.setAttribute(&quot;width&quot;, w);
	SVGDoc.documentElement.setAttribute(&quot;height&quot;, h);
}

function setScale(sw, sh) {
	g_element.setAttribute(&quot;transform&quot;, &quot;scale(&quot; + sw + &quot; &quot; + sh +&quot;)&quot;);
}
</script>
  <script
     id="script2907">var timerID = null;
var timerRunning = false;
var show = true;

function stopclock(){
    if(timerRunning)
    clearInterval(timerID)
    timerRunning = false
}

function startclock(){
    // Make sure the clock is stopped
    stopclock()
    timerID = setInterval(&quot;showtime()&quot;,1000)
    timerRunning = true
}

function showtime(){ 
	if(show == true){
		var paramArray = [];
        	if ( document.defaultView.frameElement ) {
			var params = document.defaultView.frameElement.getElementsByTagName(&quot;param&quot;);

           		for ( var i = 0, iLen = params.length; iLen &gt; i; i++ ) {
				var eachParam = params[ i ];
				var name = eachParam.getAttribute( &quot;name&quot; );
				var value = eachParam.getAttribute( &quot;alternative&quot; );
              
				paramArray[ name ] = value;

				var district = document.getElementById(name);
				district.style.cssText = &quot;fill-opacity: 1; stroke: rgb(0, 0, 0); stroke-opacity: 1; fill:  &quot; + value + &quot;;&quot;;
			}
		}
		show = false;
	} else {
		var paramArray = [];
        	if ( document.defaultView.frameElement ) {
			var params = document.defaultView.frameElement.getElementsByTagName(&quot;param&quot;);

           		for ( var i = 0, iLen = params.length; iLen &gt; i; i++ ) {
				var eachParam = params[ i ];
				var name = eachParam.getAttribute( &quot;name&quot; );
				var value = eachParam.getAttribute( &quot;value&quot; );
              
				paramArray[ name ] = value;

				var district = document.getElementById(name);
				district.style.cssText = &quot;fill-opacity: 1; stroke: rgb(0, 0, 0); stroke-opacity: 1; fill: &quot; + value + &quot;;&quot;;				
			}
		}
        
		show = true;
	}
}

	function SetParams() {
		startclock();
		var paramArray = [];
        	if ( document.defaultView.frameElement ) {
			var params = document.defaultView.frameElement.getElementsByTagName(&quot;param&quot;);

           		for ( var i = 0, iLen = params.length; iLen &gt; i; i++ ) {
				var eachParam = params[ i ];
				var name = eachParam.getAttribute( &quot;name&quot; );
				var value = eachParam.getAttribute( &quot;value&quot; );
              
				paramArray[ name ] = value;

				var district = document.getElementById(name);
				district.style.cssText = &quot;fill-opacity: 1; stroke: rgb(0, 0, 0); stroke-opacity: 1; fill: &quot; + value + &quot;;&quot;;
			}
		}
        
	};
   </script>
  <defs
     id="defs4">
    <pattern
       inkscape:stockid="Wavy"
       id="Wavy"
       height="5.1805778"
       width="30.066020"
       patternUnits="userSpaceOnUse"
       inkscape:collect="always">
      <path
         id="path5026"
         d="M 7.597,0.061 C 5.079,-0.187 2.656,0.302 -0.01,1.788 L -0.01,3.061 C 2.773,1.431 5.173,1.052 7.472,1.280 C 9.770,1.508 11.969,2.361 14.253,3.218 C 18.820,4.931 23.804,6.676 30.066,3.061 L 30.062,1.788 C 23.622,5.497 19.246,3.770 14.691,2.061 C 12.413,1.207 10.115,0.311 7.597,0.061 z "
         style="fill:black;stroke:none;" />
    </pattern>
    <inkscape:perspective
       sodipodi:type="inkscape:persp3d"
       inkscape:vp_x="0 : 526.18109 : 1"
       inkscape:vp_y="0 : 1000 : 0"
       inkscape:vp_z="744.09448 : 526.18109 : 1"
       inkscape:persp3d-origin="372.04724 : 350.78739 : 1"
       id="perspective10" />
    <inkscape:perspective
       id="perspective3002"
       inkscape:persp3d-origin="0.5 : 0.33333333 : 1"
       inkscape:vp_z="1 : 0.5 : 1"
       inkscape:vp_y="0 : 1000 : 0"
       inkscape:vp_x="0 : 0.5 : 1"
       sodipodi:type="inkscape:persp3d" />
    <inkscape:perspective
       id="perspective4124"
       inkscape:persp3d-origin="0.5 : 0.33333333 : 1"
       inkscape:vp_z="1 : 0.5 : 1"
       inkscape:vp_y="0 : 1000 : 0"
       inkscape:vp_x="0 : 0.5 : 1"
       sodipodi:type="inkscape:persp3d" />
  </defs>
  <sodipodi:namedview
     id="base"
     pagecolor="#ffffff"
     bordercolor="#186659"
     borderopacity="1"
     inkscape:pageopacity="0"
     inkscape:pageshadow="2"
     inkscape:zoom="0.60708619"
     inkscape:cx="-226.52782"
     inkscape:cy="532.00518"
     inkscape:document-units="px"
     inkscape:current-layer="lake_malawi"
     showgrid="false"
     inkscape:window-width="1262"
     inkscape:window-height="669"
     inkscape:window-x="0"
     inkscape:window-y="41"
     inkscape:window-maximized="0"
     showguides="false"
     showborder="true"
     inkscape:showpageshadow="false">
    <sodipodi:guide
       position="315.8394,315.1266"
       orientation="0,744.09448"
       id="guide2885" />
    <sodipodi:guide
       position="408.77343,848.48714"
       orientation="-1052.3622,0"
       id="guide2887" />
    <sodipodi:guide
       position="348.16428,1264.67"
       orientation="0,-744.09448"
       id="guide2889" />
    <sodipodi:guide
       position="-19.531244,909.09629"
       orientation="1052.3622,0"
       id="guide2891" />
  </sodipodi:namedview>
  <g
     id="layer1"
     transform="translate(1.9350971e-6,2.4355359e-7)"
     sodipodi:insensitive="true">
    <g
       inkscape:groupmode="layer"
       id="lake_malawi"
       inkscape:label="lake malawi"
       style="display:inline"
       transform="translate(-195.29779,-48.605588)"
       sodipodi:insensitive="true">
      <path
         style="fill:url(#Wavy);fill-opacity:1;stroke:#0000ff;stroke-width:1;stroke-miterlimit:4;stroke-opacity:1;stroke-dasharray:none"
         d="m 486.23168,639.03323 c -4.1972,-4.69358 -8.5736,-10.4793 -9.7252,-12.85714 -1.1516,-2.37784 -2.7023,-4.32334 -3.446,-4.32334 -0.7437,0 -2.363,-1.01079 -3.5984,-2.24619 -1.4086,-1.40863 -3.5013,-1.93116 -5.6122,-1.40136 -2.6782,0.67219 -3.3661,0.2726 -3.3661,-1.95521 0,-1.54003 -0.6428,-3.19736 -1.4286,-3.68296 -0.7857,-0.4856 -1.4285,-2.79371 -1.4285,-5.12914 0,-2.75686 -0.8769,-4.55451 -2.5,-5.12511 -1.375,-0.48338 -4.2156,-2.462 -6.3125,-4.39693 -2.1775,-2.00932 -4.5403,-3.06823 -5.5097,-2.46916 -1.2743,0.78761 -1.2143,1.35487 0.2411,2.27704 1.4262,0.90367 1.4665,1.2339 0.1525,1.25 -2.6374,0.0323 -2.1705,4.04047 0.9873,8.47517 2.745,3.85499 2.745,3.91458 0,5.89305 -2.0501,1.47767 -2.773,3.70363 -2.773,8.53918 0,6.11095 -0.3116,6.65317 -4.7443,8.25606 -6.1534,2.22509 -6.2206,2.21427 -7.0982,-1.14159 -0.4109,-1.57142 -1.7716,-2.85714 -3.02377,-2.85714 -1.25213,0 -2.2766,-0.64286 -2.2766,-1.42857 0,-0.78571 -0.96428,-1.42857 -2.14285,-1.42857 -1.17857,0 -2.14286,-0.52164 -2.14286,-1.1592 0,-0.63756 -1.14604,-2.40542 -2.54675,-3.92857 -6.72217,-7.3098 -10.14769,-23.96795 -5.31039,-25.82419 1.17857,-0.45227 2.14285,-1.66423 2.14285,-2.69327 0,-1.02903 0.78816,-2.13369 1.75146,-2.45479 1.02371,-0.34122 1.60004,-2.57091 1.38704,-5.36621 -0.20042,-2.63031 0.40022,-5.25496 1.33476,-5.83254 0.93455,-0.57757 1.82826,-2.2342 1.98604,-3.6814 0.15777,-1.44719 0.81017,-3.8705 1.44976,-5.38513 0.86705,-2.05327 0.37236,-3.27876 -1.94451,-4.8171 -1.70907,-1.13477 -3.1074,-2.90579 -3.1074,-3.93557 0,-1.0298 -1.28422,-2.27995 -2.85383,-2.77812 -1.5696,-0.49817 -3.24643,-2.47007 -3.72629,-4.38198 -0.9079,-3.61736 -5.78457,-4.82582 -8.50325,-2.10713 -0.753,0.753 -2.07118,0.91371 -2.9293,0.35714 -2.04738,-1.32791 -9.13019,-12.66538 -9.13019,-14.61471 0,-0.83419 -1.21426,-2.82006 -2.69836,-4.41305 -3.87975,-4.16442 -4.98465,-11.16235 -2.24108,-14.19395 1.79893,-1.9878 2.15604,-5.70525 1.86462,-19.41017 -0.19824,-9.32332 -0.89545,-17.687 -1.54935,-18.58595 -0.6539,-0.89895 -1.57581,-4.90133 -2.04871,-8.89417 -0.63455,-5.35784 -1.55724,-7.48106 -3.52203,-8.10466 -2.11177,-0.67025 -2.66223,-2.26752 -2.66223,-7.72494 0,-5.47998 -0.53507,-7.01988 -2.62949,-7.5676 -3.90255,-1.02053 -7.77388,-13.77644 -5.8532,-19.28608 0.90558,-2.59776 1.02389,-6.93232 0.30638,-11.22438 -1.03019,-6.16237 -1.70326,-7.16614 -5.67088,-8.45711 -2.47607,-0.80566 -6.47027,-3.69851 -8.87599,-6.42857 -3.88692,-4.41094 -4.37658,-5.96946 -4.39686,-13.99436 -0.0155,-6.14748 0.66131,-9.71474 2.12004,-11.17347 1.17857,-1.17857 2.18804,-4.50764 2.24326,-7.39796 0.14597,-7.6397 1.4403,-9.9262 7.78815,-13.75821 5.21943,-3.15082 5.68287,-3.93424 5.68287,-9.60659 0,-5.03454 0.59408,-6.43664 3.21429,-7.5862 1.76786,-0.7756 3.21428,-2.08343 3.21428,-2.90627 0,-0.82286 2.08929,-2.71128 4.64286,-4.19651 2.55357,-1.48523 5.13705,-3.3917 5.74106,-4.23659 1.49116,-2.08583 -0.22687,-15.14181 -2.45796,-18.67901 -0.99118,-1.57143 -1.85929,-6.96857 -1.92912,-11.99365 -0.0698,-5.02507 -0.80483,-9.81435 -1.63333,-10.64285 -0.8285,-0.8285 -1.50636,-2.85636 -1.50636,-4.50636 0,-1.65 -0.5897,-3.61071 -1.31044,-4.35714 -0.72075,-0.74643 -1.62245,-3.28572 -2.0038,-5.64286 -0.38134,-2.35714 -1.14928,-5.4189 -1.70652,-6.8039 -0.55725,-1.38501 -0.29898,-3.37874 0.57391,-4.43053 1.07766,-1.29848 1.33267,-7.82697 0.79448,-20.33894 -0.43594,-10.13464 -0.80112,-21.4802 -0.81152,-25.21234 -0.0104,-3.73215 -0.54014,-6.78572 -1.17723,-6.78572 -0.63709,0 -1.47685,-4.01786 -1.86615,-8.92857 -0.61243,-7.72532 -0.32145,-9.2373 2.15919,-11.21941 2.23235,-1.78372 2.54367,-2.86861 1.40637,-4.90086 -1.66501,-2.97521 0.76519,-6.37973 4.55395,-6.37973 2.50929,0 3.01502,-2.21256 0.81633,-3.57143 -0.78572,-0.4856 -1.42857,-2.34584 -1.42857,-4.13388 0,-1.81125 -1.89798,-4.94209 -4.28572,-7.06957 -2.35714,-2.10022 -4.30341,-4.6172 -4.32504,-5.59328 -0.0216,-0.97608 -2.25393,-3.38185 -4.96067,-5.34613 -2.70674,-1.96429 -4.93904,-4.30622 -4.96067,-5.2043 -0.0216,-0.89808 -1.00362,-2.00291 -2.18219,-2.45517 -1.17857,-0.45226 -2.14286,-1.80675 -2.14286,-3.00998 0,-1.20323 -0.96428,-2.18769 -2.14285,-2.18769 -1.17857,0 -2.14286,-0.96429 -2.14286,-2.14286 0,-1.17857 -0.64286,-2.14286 -1.42857,-2.14286 -0.78572,0 -1.42857,-1.25716 -1.42857,-2.7937 0,-1.53654 -1.62909,-5.1943 -3.6202,-8.12836 -1.99111,-2.93406 -3.27449,-6.23554 -2.85196,-7.33663 0.42252,-1.10109 -0.10805,-4.03261 -1.17905,-6.5145 -4.38993,-10.173014 -5.20594,-12.656134 -5.20594,-15.8417 0,-2.102353 1.02625,-3.605961 2.77289,-4.062719 4.14507,-1.083961 7.85118,-10.742361 6.03375,-15.724435 -1.20835,-3.312433 -0.92878,-4.57883 1.68046,-7.612256 l 3.12995,-3.638785 12.81937,12.255113 c 7.05065,6.740312 13.62967,12.255113 14.62005,12.255113 0.99037,0 1.80068,0.55995 1.80068,1.244335 0,0.684384 3.85714,6.076411 8.57143,11.982284 4.71428,5.90587 8.58912,11.29235 8.61075,11.96995 0.0216,0.6776 2.25393,2.83915 4.96067,4.80343 2.70674,1.96429 4.93905,4.375 4.96068,5.35715 0.0216,0.98214 0.68218,1.78571 1.4679,1.78571 1.85805,0 1.85805,5.28023 0,6.42857 -2.08913,1.29115 -1.74447,5.14026 0.70236,7.84398 3.21985,3.55789 5.34738,16.81097 3.56544,22.21028 -1.92296,5.82663 -2.26505,15.37524 -0.57107,15.9399 0.72783,0.24261 1.10324,3.20822 0.83426,6.59025 -0.34447,4.33117 0.18051,6.70484 1.77569,8.02872 1.24561,1.03377 2.26474,2.77387 2.26474,3.8669 0,1.09302 0.55669,3.1036 1.23708,4.46793 5.81972,11.66981 6.54935,30.07219 1.53178,38.63371 -3.32863,5.67965 -3.46507,7.91927 -0.626,10.27548 1.17857,0.97813 2.14286,2.90797 2.14286,4.28854 0,1.38058 2.89286,4.88062 6.42857,7.77788 3.53568,2.89724 6.42858,6.18897 6.42858,7.31494 0,1.12597 0.5679,2.04721 1.2619,2.04721 1.2941,0 3.5025,5.43752 3.1187,7.6788 -0.3971,2.31887 4.6096,6.60692 7.7143,6.60692 4.5599,0 9.0862,4.97873 10.0602,11.06578 0.472,2.94953 1.4659,6.47906 2.2087,7.8434 2.7285,5.01179 1.5821,5.37653 -16.8989,5.37653 l -18.24936,0 -1.76053,11.07143 c -0.96829,6.08929 -2.39893,11.28571 -3.1792,11.54761 -0.78027,0.26192 -1.41868,1.11572 -1.41868,1.89735 0,1.35588 -7.09745,17.14681 -12.95935,28.8329 -1.51521,3.02068 -2.75493,6.67917 -2.75493,8.12997 0,1.45081 -0.57221,2.99148 -1.27157,3.42371 -0.69936,0.43223 -2.40904,5.42743 -3.79928,11.10043 -2.22278,9.07026 -2.31086,11.61377 -0.73011,21.08416 0.98869,5.92327 2.30271,11.41244 2.92005,12.19816 0.61734,0.78571 1.79896,4.32142 2.62582,7.85714 0.82686,3.53571 2.27414,9 3.21617,12.14286 0.94204,3.14285 2.10801,12.14285 2.59105,20 0.48304,7.85714 1.68142,15.68988 2.66306,17.40608 2.62053,4.58146 2.39829,36.2174 -0.29978,42.6748 -1.97984,4.73842 -1.69634,9.20483 0.58426,9.20483 0.57813,0 2.50028,2.8176 4.27146,6.26134 4.69962,9.13756 7.4469,10.16752 21.60042,8.09802 9.9946,-1.46143 12.0503,-1.40689 13.8239,0.36674 1.6814,1.68131 1.7531,2.70073 0.3718,5.28176 -0.9415,1.75908 -1.3233,5.1404 -0.8486,7.51404 0.4798,2.39913 0.1556,5.16827 -0.7301,6.23549 -0.8763,1.05588 -1.1879,3.53528 -0.6923,5.50977 0.9683,3.858 0.9086,3.8431 16.5609,4.13255 l 9.2857,0.17172 2.1429,6.42857 c 1.1785,3.53571 2.9464,7.83274 3.9285,9.54894 0.9822,1.7162 1.7857,5.41263 1.7857,8.21429 0,2.80166 0.6429,5.09391 1.4286,5.09391 0.7857,0 1.4286,1.207 1.4286,2.68223 0,1.47522 0.937,3.45986 2.0822,4.4103 1.3424,1.11412 1.7989,3.14497 1.2847,5.71596 -0.4452,2.22604 -0.1029,4.41721 0.7749,4.95971 0.8649,0.53452 1.5725,2.14092 1.5725,3.56976 0,1.42886 0.9788,3.41024 2.1751,4.4031 1.1963,0.99284 1.8246,2.90937 1.3963,4.25894 -0.4283,1.34957 0.2,3.2661 1.3963,4.25895 1.1963,0.99285 2.1751,2.71092 2.1751,3.81795 0,1.10703 0.9643,2.3828 2.1429,2.83506 3.5305,1.3548 1.6861,9.08804 -2.1675,9.08804 -0.485,0 -4.3159,-3.84021 -8.5132,-8.5338 l 0,0 z"
         id="pathLakeMalawi" />
    </g>
    <g
       inkscape:groupmode="layer"
       id="kasungu"
       inkscape:label="kasungu"
       style="display:inline"
       transform="translate(-195.29779,-48.605588)"
       sodipodi:insensitive="true">
      <a
         xlink:href="districts?district=kasungu"
         target="_blank"
         id="a3376"
         style="fill:#ffffff;fill-opacity:1;stroke:#000000;stroke-opacity:1">
        <path
           onmouseout="setAttribute('fill-opacity','1.0')"
           onmouseover="setAttribute('fill-opacity','0.5')"
           inkscape:label="#Kasungu"
           id="pathKasungu"
           d="m 257.5382,544.69184 c -8.10484,-8.48327 -10.50518,-12.46332 -10.53046,-17.46072 -0.0391,-7.7233 -1.23726,-8.33525 -14.09228,-7.19732 -13.67929,1.21089 -14.68894,-0.12907 -6.73287,-8.93549 4.71895,-5.22331 4.80601,-5.53314 2.85714,-10.16813 -2.59644,-6.17512 -2.55065,-12.81002 0.13275,-19.23228 3.59943,-8.61466 2.82151,-15.75048 -2.27239,-20.84437 l -4.41523,-4.41524 3.20048,-5.33751 c 1.76027,-2.93563 4.47714,-7.68807 6.03749,-10.56097 3.49392,-6.43298 10.74692,-8.16644 14.72579,-3.51946 2.3564,2.75207 2.53683,2.67335 8.61313,-3.75774 5.70402,-6.03709 6.72315,-6.5487 12.59246,-6.32155 5.53449,0.21419 7.06962,-0.41941 11.51102,-4.75103 2.81868,-2.749 5.71256,-6.411 6.43086,-8.13776 1.8121,-4.35622 8.27254,-8.44999 10.23619,-6.48634 1.06509,1.06509 0.4089,2.4732 -2.21621,4.7557 -4.16553,3.62189 -4.53656,6.08685 -1.68994,11.2271 1.6492,2.97802 1.62557,3.97677 -0.1585,6.69961 -5.92753,9.04655 11.86186,21.87165 22.46586,16.19656 4.2653,-2.28272 8.51041,1.12212 8.51041,6.82586 0,3.74397 0.92652,5.24227 4.64286,7.50817 2.55357,1.55694 6.08929,2.83321 7.85714,2.83614 1.76786,0.003 3.21429,0.7583 3.21429,1.67857 0,0.92028 0.93681,2.70839 2.08179,3.97358 1.84706,2.04097 1.59711,2.81898 -2.21663,6.89967 -2.36414,2.52962 -6.35452,5.65034 -8.86751,6.93493 -2.51299,1.28459 -7.53195,5.40571 -11.15325,9.15805 -3.62129,3.75234 -9.72843,8.42383 -13.57143,10.38108 -3.84299,1.95726 -9.16572,6.03191 -11.82829,9.05477 -3.63299,4.12459 -5.93235,5.49612 -9.21425,5.49612 -4.06838,0 -4.3871,0.37466 -4.57247,5.375 -0.13066,3.52429 -1.75388,7.53977 -4.71433,11.66211 -2.48328,3.45791 -4.51506,7.82131 -4.51506,9.69643 0,3.59362 -2.36671,6.83789 -4.98827,6.83789 -0.85784,0 -4.16997,-2.73214 -7.36029,-6.07143 l 0,0 z"
           style="fill:#ffffff;fill-opacity:1;stroke:#000000;stroke-opacity:1" />
      </a>
    </g>
    <g
       inkscape:groupmode="layer"
       id="nkhotakota"
       inkscape:label="nkhotakota"
       style="display:inline"
       transform="translate(-195.29779,-48.605588)"
       sodipodi:insensitive="true">
      <a
         xlink:href="districts?district=nkhotakota"
         id="a3659"
         target="_blank"
         onmouseover="setAttribute('fill-opacity','0.5')"
         onmouseout="setAttribute('fill-opacity','1.0')"
         style="fill:#ffffff;fill-opacity:1">
        <path
           inkscape:label="#Nkhotakota"
           onmouseout="setAttribute('fill-opacity','1.0')"
           onmouseover="setAttribute('fill-opacity','0.5')"
           id="pathNkhotakota"
           d="m 361.95866,531.60176 c -0.50308,-2.68169 -0.49072,-6.21166 0.0275,-7.84436 0.5182,-1.63271 0.41854,-3.77789 -0.22146,-4.76706 -0.64,-0.98917 -1.16363,-5.43238 -1.16363,-9.87379 0,-7.00384 -0.5293,-8.56601 -3.98924,-11.77372 -5.00918,-4.64403 -11.01076,-6.41402 -11.01076,-3.24731 0,4.12317 -2.72409,3.92602 -4.93916,-0.35746 -3.35875,-6.4951 -2.74533,-11.22437 2.08201,-16.05171 2.35715,-2.35715 4.28572,-4.9406 4.28572,-5.74101 0,-3.46866 -6.03397,-9.41484 -12.7422,-12.55681 -8.32144,-3.89755 -9.1358,-6.70755 -4.31286,-14.88182 2.20411,-3.73569 5.77208,-6.35945 14.18348,-10.43002 10.92013,-5.28462 17.10328,-11.36217 15.00828,-14.75195 -0.48699,-0.78796 -3.57768,-1.35054 -6.86821,-1.25017 -3.29053,0.10037 -8.3939,-0.69675 -11.34082,-1.77138 -4.49733,-1.64002 -5.4854,-2.75825 -6.15089,-6.96119 -1.20471,-7.60834 -4.08861,-11.73736 -9.39609,-13.45285 -6.35205,-2.05311 -7.19708,-7.49003 -1.77174,-11.39934 3.62888,-2.61483 3.89071,-2.61883 8.11424,-0.12393 2.4004,1.41795 6.33752,2.96591 8.74916,3.43991 3.39085,0.66646 5.11631,2.3137 7.6119,7.26679 5.1328,10.18729 8.52231,14.02821 12.81483,14.52153 3.25628,0.37422 4.19521,1.41498 5.29557,5.86984 0.92936,3.7626 0.80679,6.88261 -0.40169,10.2246 -1.47982,4.09237 -1.3316,5.8823 0.99389,12.0025 1.50319,3.95607 4.09466,8.92384 5.75882,11.03948 1.66417,2.11564 3.02576,5.55993 3.02576,7.65397 0,2.09404 0.71387,4.52122 1.58638,5.39373 2.79666,2.79666 5.85472,17.80352 7.05336,34.6131 1.01026,14.16768 0.86342,16.56312 -1.10352,18.00137 -2.23358,1.63324 -2.82964,8.08793 -1.21628,13.17116 0.63278,1.99371 -0.90157,3.16835 -7.46088,5.71178 -10.76589,4.17457 -11.42072,4.08689 -12.50145,-1.67388 l 0,0 z"
           style="fill:#ffffff;fill-opacity:1;stroke:#000000;stroke-opacity:1" />
      </a>
    </g>
    <g
       inkscape:groupmode="layer"
       id="salima"
       inkscape:label="salima"
       style="display:inline"
       transform="translate(-195.29779,-48.605588)">
      <a
         xlink:href="districts?district=salima"
         id="a3668"
         target="_blank"
         onmouseover="setAttribute('fill-opacity','0.5')"
         onmouseout="setAttribute('fill-opacity','1.0')"
         style="fill:#ffffff;fill-opacity:1">
        <path
           onmouseout="setAttribute('fill-opacity','1.0')"
           onmouseover="setAttribute('fill-opacity','0.5')"
           id="pathSalima"
           d="m 397.40104,601.8347 c -4.61094,-5.69643 -9.83887,-12.44643 -11.61761,-15 -2.45048,-3.51792 -4.33545,-4.67019 -7.77966,-4.75564 -2.50007,-0.062 -3.74201,-0.43703 -2.75987,-0.83333 0.98215,-0.39631 1.78572,-1.64718 1.78572,-2.77972 0,-1.13255 1.60714,-2.67021 3.57143,-3.41703 3.61561,-1.37465 4.76091,-4.81052 2.14285,-6.42857 -0.78571,-0.4856 -1.43841,-1.96996 -1.45044,-3.29859 -0.0432,-4.77427 -2.06576,-6.27648 -6.02294,-4.47347 -3.12026,1.42169 -4.28946,1.18189 -8.1485,-1.67123 -4.12544,-3.05006 -4.47003,-3.9189 -4.08468,-10.29903 l 0.42085,-6.96795 10.5466,-4.42391 10.5466,-4.42391 2.31054,2.96042 c 1.2708,1.62823 4.06258,5.93237 6.20395,9.56476 3.38571,5.74315 4.51119,6.60434 8.63113,6.60434 3.69826,0 6.06568,1.35308 10.79029,6.16711 l 6.05256,6.16711 -2.83468,11.86834 c -1.94087,8.12611 -3.75624,12.51383 -5.75741,13.9155 -2.63783,1.8476 -2.83289,3.01395 -2.00102,11.96456 0.62406,6.71464 0.42376,9.91738 -0.62022,9.91738 -0.84808,0 -5.31454,-4.66071 -9.92549,-10.35714 l 0,0 z"
           style="fill:#ffffff;fill-opacity:1;stroke:#000000;stroke-opacity:1" />
      </a>
    </g>
    <g
       inkscape:groupmode="layer"
       id="likoma"
       inkscape:label="likoma"
       style="display:inline"
       transform="translate(-195.29779,-48.605588)"
       sodipodi:insensitive="true">
      <a
         xlink:href="districts?district=likoma"
         onmouseout="setAttribute('fill-opacity','1.0')"
         onmouseover="setAttribute('fill-opacity','0.5')"
         id="a3677"
         target="_blank"
         style="fill:#ffffff;fill-opacity:1">
        <path
           onmouseout="setAttribute('fill-opacity','1.0')"
           onmouseover="setAttribute('fill-opacity','0.5')"
           transform="translate(-6,-10)"
           d="m 445.71429,370.21933 a 15.714286,15 0 1 1 -31.42858,0 15.714286,15 0 1 1 31.42858,0 z"
           sodipodi:ry="15"
           sodipodi:rx="15.714286"
           sodipodi:cy="370.21933"
           sodipodi:cx="430"
           id="pathLikoma"
           style="fill:#ffffff;fill-opacity:1;stroke:#000000;stroke-opacity:1"
           sodipodi:type="arc" />
      </a>
    </g>
    <g
       inkscape:groupmode="layer"
       id="rumphi"
       inkscape:label="rumphi"
       style="display:inline"
       transform="translate(-195.29779,-48.605588)"
       sodipodi:insensitive="true">
      <a
         xlink:href="districts?district=rumphi"
         id="a3686"
         target="_blank"
         style="fill:#ffffff;fill-opacity:1">
        <path
           onmouseout="setAttribute('fill-opacity','1.0')"
           onmouseover="setAttribute('fill-opacity','0.5')"
           id="pathRumphi"
           d="m 281.31533,249.45154 c 0,-5.08257 -1.67762,-7.2597 -5.59408,-7.2597 -5.33379,0 -8.2114,-2.62064 -9.92107,-9.03514 -2.33519,-8.7614 -1.11342,-9.86017 14.56757,-13.10106 2.27624,-0.47045 6.65926,-3.69261 10,-7.35147 3.27117,-3.58266 7.8481,-8.21714 10.17096,-10.29884 2.32286,-2.08171 6.89084,-6.39263 10.15106,-9.57984 3.60808,-3.52727 10.73627,-7.93756 18.21585,-11.27033 l 12.28815,-5.4754 8.03305,7.34176 c 5.72232,5.22987 9.20086,7.34175 12.09285,7.34175 3.35036,0 4.33993,0.8488 5.66286,4.85733 2.11058,6.3951 4.14933,35.0173 2.76962,38.88289 -0.59401,1.66426 -4.20891,4.95115 -8.0331,7.3042 l -6.95309,4.27828 -5.65389,-4.85977 c -9.16628,-7.87885 -10.21713,-8.19161 -12.37812,-3.68402 -1.81631,3.78865 -2.2372,3.91763 -11.289,3.4595 -7.41499,-0.3753 -9.91931,0.0411 -11.84814,1.96991 -1.34519,1.34518 -2.10757,3.32719 -1.69418,4.40445 0.86141,2.24482 -1.39913,2.68373 -2.73015,0.53009 -0.4856,-0.78572 -2.9721,-1.42857 -5.52556,-1.42857 -2.55345,0 -5.89051,-0.94384 -7.41569,-2.09743 -4.4022,-3.32966 -7.30994,-2.56055 -10.63018,2.81171 -3.53129,5.71374 -4.28572,6.11153 -4.28572,2.2597 z"
           style="fill:#ffffff;fill-opacity:1;stroke:#000000;stroke-opacity:1" />
      </a>
    </g>
    <g
       inkscape:groupmode="layer"
       id="dedza"
       inkscape:label="dedza"
       style="display:inline"
       transform="translate(-195.29779,-48.605588)"
       sodipodi:insensitive="true">
      <a
         xlink:href="districts?district=dedza"
         target="_blank"
         onmouseover="setAttribute('fill-opacity','0.5')"
         onmouseout="setAttribute('fill-opacity','1.0')"
         inkscape:label="#Dedza"
         id="a2913">
        <path
           id="pathDedza"
           d="m 317.38676,657.74177 c -2.55357,-1.63535 -4.64286,-4.11851 -4.64286,-5.51813 0,-3.49934 11.61389,-12.72252 17.40326,-13.82081 7.10027,-1.34697 9.81856,-3.154 11.3491,-7.5445 0.97962,-2.81014 2.92827,-4.45022 6.67281,-5.61616 4.04412,-1.25922 6.56691,-3.57748 10.71754,-9.8486 8.86589,-13.39536 15.80818,-22.94765 18.96639,-26.09697 l 2.96625,-2.95788 7.74804,10.22219 c 4.26142,5.6222 9.35519,12.39797 11.31947,15.05726 2.92571,3.96088 4.25706,4.69302 7.36358,4.0494 3.12803,-0.64808 4.48244,0.11936 7.73378,4.38208 2.1679,2.84226 5.76501,6.11065 7.99357,7.26309 2.32086,1.20016 4.05193,3.26996 4.05193,4.8448 0,1.51221 1.05125,3.33778 2.33612,4.05683 1.93369,1.08215 0.91374,2.38128 -5.92078,7.54139 -6.60875,4.98965 -9.35427,6.20525 -13.75449,6.08987 -3.02367,-0.0793 -6.47213,-0.95295 -7.66323,-1.94148 -4.97406,-4.1281 -41.85063,0.005 -48.15675,5.39725 -1.84815,1.58034 -4.36134,1.85113 -10.29726,1.10948 -6.87425,-0.85888 -8.63182,-0.52433 -14.10924,2.68565 -3.44125,2.01671 -6.52177,3.65591 -6.8456,3.64267 -0.32382,-0.0132 -2.67806,-1.36208 -5.23163,-2.99743 z"
           style="fill:#ffffff;fill-opacity:1;stroke:#000000;stroke-opacity:1" />
      </a>
    </g>
    <g
       inkscape:groupmode="layer"
       id="dowa"
       inkscape:label="dowa"
       style="display:inline"
       transform="translate(-195.29779,-48.605588)"
       sodipodi:insensitive="true">
      <a
         xlink:href="districts?district=dowa"
         onmouseout="setAttribute('fill-opacity','1.0')"
         onmouseover="setAttribute('fill-opacity','0.5')"
         inkscape:label="#Dowa"
         target="_blank"
         id="a2911">
        <path
           id="pathDowa"
           d="m 348.45819,575.07493 c -4.02795,-3.12144 -14.48784,-5.74023 -22.92746,-5.74023 -5.33168,0 -5.64397,-0.23962 -5.64397,-4.33055 0,-2.3818 -0.85338,-4.65802 -1.8964,-5.05827 -1.04302,-0.40024 -7.765,0.57949 -14.93773,2.17719 l -13.04133,2.90491 -3.91927,-3.63226 c -3.33085,-3.08693 -3.95103,-4.86919 -4.13078,-11.87107 -0.11632,-4.53134 -0.87554,-9.42539 -1.68715,-10.87566 -1.06034,-1.8947 -0.92043,-3.96568 0.49707,-7.35826 1.085,-2.59677 1.97273,-6.02777 1.97273,-7.62443 0,-2.31476 0.94083,-2.911 4.64286,-2.94236 3.63735,-0.0308 5.41633,-1.11326 8.21429,-4.99813 2.85985,-3.97081 11.31963,-10.67683 13.46904,-10.67683 0.24672,0 0.86427,3.13363 1.37234,6.96362 0.56865,4.28668 2.51409,9.15901 5.06076,12.67459 2.27536,3.14103 4.3532,7.17505 4.61743,8.96449 0.26424,1.78943 2.1911,4.52583 4.28192,6.08089 3.16443,2.35355 4.52628,2.57471 8.12645,1.31968 3.38677,-1.18063 4.68936,-1.06861 6.00483,0.51643 1.04273,1.25642 2.97945,1.69794 5.10638,1.16411 1.88459,-0.473 4.22174,-0.20695 5.19368,0.59122 0.97194,0.79816 3.37431,1.67352 5.3386,1.94523 2.98199,0.4125 3.64421,1.37165 4.01245,5.81165 0.3482,4.19851 1.69725,6.39291 6.41017,10.42699 4.15386,3.55556 6.88628,4.87919 8.98493,4.35246 2.21319,-0.55547 3.43098,0.15435 4.57591,2.6672 1.85298,4.06685 1.65579,4.17627 -13.05914,7.24618 -12.65349,2.63983 -12.3119,2.65418 -16.63861,-0.69879 z"
           style="fill:#ffffff;fill-opacity:1;stroke:#000000;stroke-opacity:1" />
      </a>
    </g>
    <g
       inkscape:groupmode="layer"
       id="chikhwawa"
       inkscape:label="chikhwawa"
       style="display:inline"
       transform="translate(-195.29779,-48.605588)"
       sodipodi:insensitive="true">
      <a
         xlink:href="districts?district=chikhwawa"
         id="a3695"
         target="_blank"
         style="fill:#ffffff;fill-opacity:1">
        <path
           onmouseout="setAttribute('fill-opacity','1.0')"
           onmouseover="setAttribute('fill-opacity','0.5')"
           id="pathChikhwawa"
           d="m 451.31533,916.04244 c 0,-1.02503 -2.25,-4.32012 -5,-7.32242 -2.75,-3.0023 -5,-6.00772 -5,-6.6787 0,-0.67099 -2.57143,-2.53183 -5.71428,-4.13519 -3.14286,-1.60337 -5.71429,-3.49257 -5.71429,-4.19824 0,-0.70566 -2.1081,-2.5859 -4.68468,-4.17831 -2.72989,-1.68717 -5.44441,-4.99631 -6.5054,-7.93041 -2.14228,-5.92438 -7.8267,-10.8359 -12.54107,-10.8359 -6.63014,0 -9.38005,-8.46238 -6.96805,-21.44296 0.78765,-4.23886 0.23587,-5.89594 -3.56774,-10.71429 -2.47472,-3.13494 -7.02705,-7.2116 -10.11628,-9.05924 -6.43404,-3.84814 -7.07208,-7.01295 -2.66236,-13.20584 3.59206,-5.04457 5.14029,-5.10741 16.25749,-0.65983 6.98361,2.79388 12.70002,3.71917 28.68351,4.64286 16.37104,0.94608 19.93867,1.53904 19.83357,3.29644 -0.0705,1.17857 -0.56023,4.875 -1.08831,8.21429 -0.77315,4.88893 -0.53952,6.07143 1.19958,6.07143 1.18786,0 2.15974,0.61431 2.15974,1.36513 0,2.92704 16.12046,25.99673 22.47951,32.17001 4.13205,4.01134 4.47212,4.93318 3.20591,8.69038 -0.77905,2.31168 -2.06794,6.8892 -2.86419,10.17228 -0.79626,3.28308 -3.68535,8.64748 -6.4202,11.92088 -2.73485,3.2734 -4.97246,6.80845 -4.97246,7.85565 0,1.96215 -6.56664,7.82567 -8.76408,7.82567 -0.67975,0 -1.23592,-0.83866 -1.23592,-1.86369 z"
           style="fill:#ffffff;fill-opacity:1;stroke:#000000;stroke-opacity:1" />
      </a>
    </g>
    <g
       inkscape:groupmode="layer"
       id="lilongwe"
       inkscape:label="lilongwe"
       style="display:inline"
       transform="translate(-195.29779,-48.605588)"
       sodipodi:insensitive="true">
      <a
         xlink:href="districts?district=lilongwe"
         onmouseout="setAttribute('fill-opacity','1.0')"
         onmouseover="setAttribute('fill-opacity','0.5')"
         inkscape:label="#Lilongwe"
         target="_blank"
         id="a3379"
         style="fill:#ffffff;fill-opacity:1;stroke:#000000;stroke-width:1;stroke-miterlimit:4;stroke-opacity:1;stroke-dasharray:none">
        <path
           inkscape:label="#Lilongwe"
           onload="setAttribute('cursor','pointer')"
           onmouseout="setAttribute('fill-opacity','1.0')"
           onmouseover="setAttribute('fill-opacity','0.50')"
           id="pathLilongwe"
           d="m 303.00881,661.94174 c -1.59201,-3.15377 -2.342,-4.05688 -5.01618,-6.04031 -1.30442,-0.96749 -2.96919,-2.48825 -3.69947,-3.37947 -1.98338,-2.42045 -3.34073,-3.61743 -5.71456,-5.0394 -4.45906,-2.67105 -4.76005,-2.94592 -5.55038,-5.06845 -1.70553,-4.5804 -6.96835,-13.6663 -10.40422,-17.96218 -2.376,-2.97071 -4.25604,-6.59162 -4.48716,-8.64217 -0.14119,-1.25263 0.0111,-1.88827 0.75752,-3.16196 1.21003,-2.06476 1.17762,-3.07527 -0.17551,-5.47289 l -1.10976,-1.96638 1.28833,-1.87059 c 0.70858,-1.02883 1.28833,-2.27514 1.28833,-2.76959 0,-0.49446 -0.74931,-2.10021 -1.66513,-3.56834 -0.91582,-1.46813 -2.05513,-3.62546 -2.53179,-4.79405 -1.06381,-2.60802 -2.40026,-4.58036 -5.18804,-7.65649 -3.34214,-3.68785 -3.40036,-3.90845 -2.09136,-7.92471 0.6033,-1.85103 1.44454,-4.28549 1.86942,-5.40991 0.72418,-1.91651 0.73605,-2.10003 0.1897,-2.93386 -0.84796,-1.29414 -0.7388,-1.87186 0.80913,-4.28256 0.76557,-1.19226 1.50578,-2.56954 1.64491,-3.06061 0.13914,-0.49107 0.87884,-1.47697 1.64378,-2.19089 0.92172,-0.86023 1.3908,-1.60889 1.3908,-2.21971 0,-1.15848 1.56313,-2.96028 4.06001,-4.67995 1.05774,-0.7285 2.11998,-1.75347 2.36052,-2.27771 0.24055,-0.52424 0.5228,-2.56031 0.62722,-4.5246 0.24395,-4.58885 0.39851,-4.89232 2.34091,-4.59614 0.82731,0.12615 1.70188,0.38515 1.94349,0.57556 0.30478,0.24018 0.43849,1.67424 0.43669,4.68338 -0.003,4.58412 0.1168,5.24548 1.63324,9.036 0.81118,2.02762 0.92058,2.71018 0.73045,4.55729 -0.29258,2.84231 0.47021,4.49511 2.28711,4.95567 0.68258,0.17302 1.83817,0.85404 2.56797,1.51338 0.74346,0.67166 1.91255,1.30865 2.65877,1.44864 1.95846,0.36741 8.75545,-0.1041 10.55055,-0.7319 0.85419,-0.29873 2.9995,-0.79496 4.76736,-1.10273 5.0243,-0.87469 8.78959,-1.91562 10.47447,-2.89572 0.85024,-0.49459 1.61813,-0.82702 1.70642,-0.73873 0.0883,0.0883 -7.2e-4,0.58453 -0.19772,1.10276 -0.46786,1.23058 -0.0947,3.01968 0.72084,3.45615 0.42005,0.22481 0.72431,0.93731 0.87152,2.04089 0.50585,3.79229 1.59822,4.94735 4.37789,4.62912 1.24715,-0.14278 1.85451,-0.0454 2.31997,0.37185 1.06302,0.95297 4.35722,1.02358 6.14308,0.13168 1.40522,-0.7018 1.75145,-0.733 4.26089,-0.38397 1.50226,0.20895 3.57156,0.77107 4.59844,1.24916 1.02688,0.47809 2.40527,0.87082 3.06308,0.87274 1.95414,0.006 3.50484,1.00555 6.21554,4.0076 1.40959,1.56111 2.85592,2.9952 3.21404,3.18686 0.48295,0.25846 1.13203,0.11767 2.51277,-0.54504 1.22243,-0.58672 3.23826,-1.08002 5.87097,-1.43669 3.93821,-0.53354 6.25354,-1.34126 7.23517,-2.52406 1.0736,-1.2936 1.7443,-1.3518 3.41503,-0.2963 0.87405,0.55219 1.58947,1.1512 1.58982,1.33115 3.5e-4,0.17994 -0.72258,1.48751 -1.60651,2.90572 -1.85776,2.98066 -2.00869,3.95355 -0.69103,4.45452 1.48687,0.56531 2.46298,0.41133 4.63484,-0.73114 1.12864,-0.5937 2.10995,-1.02156 2.18071,-0.9508 0.0708,0.0707 -1.22983,1.70182 -2.89019,3.62459 -1.66036,1.92278 -3.11288,3.92414 -3.22783,4.44748 -0.11494,0.52334 -0.84646,1.89078 -1.6256,3.03877 -0.77914,1.14798 -1.41907,2.50751 -1.42208,3.02118 -0.007,1.27163 -0.31423,1.65658 -1.81959,2.28328 -0.96335,0.40105 -2.10388,1.6188 -4.51097,4.8164 -1.77189,2.3538 -3.40827,4.84518 -3.63639,5.5364 -0.22813,0.69123 -1.21332,2.16932 -2.18931,3.28464 -1.82856,2.0896 -2.83827,3.71753 -2.83827,4.57609 0,1.40627 -3.21733,2.80679 -7.62944,3.32111 -3.65825,0.42645 -5.79193,3.11085 -6.33719,7.97285 -0.16403,1.46276 -0.49024,2.77822 -0.7249,2.92325 -0.23465,0.14502 -1.16345,0.37082 -2.06398,0.50177 -0.90054,0.13095 -1.9933,0.46664 -2.42835,0.74598 -0.50643,0.32516 -1.76766,0.50788 -3.50563,0.50788 -1.49304,0 -3.06565,0.18175 -3.4947,0.40389 -0.42905,0.22213 -1.9051,1.48176 -3.2801,2.79915 -2.9874,2.86226 -4.82994,4.10563 -6.87969,4.64251 -2.64353,0.69241 -4.96168,3.30852 -6.34999,7.16616 -0.3158,0.87749 -0.87567,3.50089 -1.24415,5.82978 -0.59259,3.74525 -0.82322,4.45684 -1.99672,6.16071 -0.72971,1.05951 -1.45843,1.92637 -1.61938,1.92637 -0.16096,0 -0.79474,-0.99466 -1.40843,-2.21036 l 0,0 z"
           style="fill:#ffffff;fill-opacity:1;stroke:#000000;stroke-width:1;stroke-miterlimit:4;stroke-opacity:1;stroke-dasharray:none" />
      </a>
    </g>
    <g
       inkscape:groupmode="layer"
       id="mchinji"
       inkscape:label="mchinji"
       style="display:inline"
       transform="translate(-195.29779,-48.605588)"
       sodipodi:insensitive="true">
      <a
         xlink:href="districts?district=mchinji"
         id="a3656"
         target="_blank"
         style="fill:#ffffff;fill-opacity:1">
        <path
           inkscape:label="#Mchinji"
           onmouseout="setAttribute('fill-opacity','1.0')"
           onmouseover="setAttribute('fill-opacity','0.5')"
           id="pathMchinji"
           d="m 258.10479,598.93631 c -2.94436,-1.78249 -6.35582,-4.67205 -7.581,-6.42125 -3.39743,-4.85051 -8.38526,-4.00356 -14.92274,2.53392 -6.60026,6.60026 -7.77939,7.01635 -6.60322,2.33012 0.58744,-2.34056 -0.13576,-4.50536 -2.34514,-7.0199 -1.75697,-1.99965 -5.37416,-6.32689 -8.03818,-9.6161 -2.66403,-3.2892 -6.69908,-7.1087 -8.96677,-8.48777 -3.59676,-2.18732 -3.84467,-2.73846 -1.94203,-4.3175 2.9807,-2.47377 2.77196,-3.73333 -1.55993,-9.41273 -2.41542,-3.16678 -4.9464,-4.90469 -7.14286,-4.90469 -5.08657,0 -4.13894,-1.75674 2.9867,-5.53689 3.51372,-1.86402 6.74586,-4.51484 7.18254,-5.89069 0.43668,-1.37586 3.04177,-4.99251 5.78909,-8.03699 2.74732,-3.04449 5.94374,-6.66043 7.10317,-8.03543 1.60915,-1.90833 4.30568,-2.5 11.39377,-2.5 8.88618,0 9.28571,0.14967 9.28571,3.47843 0,6.24402 2.88048,11.38556 10.99335,19.62266 l 7.9789,8.10109 -2.24892,5.6206 c -1.23691,3.09134 -2.67511,9.41013 -3.196,14.04177 -0.79887,7.10332 -0.5099,8.98007 1.84652,11.9926 3.35331,4.28698 7.4833,12.13203 7.4833,14.21477 0,2.21076 -1.53954,1.85012 -7.49626,-1.75602 z"
           style="fill:#ffffff;fill-opacity:1;stroke:#000000;stroke-opacity:1" />
      </a>
    </g>
    <g
       inkscape:groupmode="layer"
       id="mangochi"
       inkscape:label="mangochi"
       style="display:inline"
       transform="translate(-195.29779,-48.605588)"
       sodipodi:insensitive="true">
      <a
         xlink:href="districts?district=mangochi"
         id="a3704"
         target="_blank"
         style="fill:#ffffff;fill-opacity:1">
        <g
           onmouseout="setAttribute('fill-opacity','1.0')"
           onmouseover="setAttribute('fill-opacity','0.5')"
           style="fill:#ffffff;fill-opacity:1;stroke:#000000;stroke-opacity:1"
           id="g3182">
          <path
             style="fill:#ffffff;fill-opacity:1;stroke:#000000;stroke-opacity:1"
             d="m 514.88676,691.17064 c -1.57143,-0.37937 -4.63079,-2.60082 -6.79859,-4.93655 -4.43136,-4.77465 -8.08401,-4.82691 -10.41619,-0.14902 -1.45815,2.92476 -1.79881,2.99495 -4.69399,0.96708 -2.8583,-2.00202 -3.43809,-1.9377 -6.87056,0.76229 -2.85476,2.24555 -5.82188,2.94883 -12.44106,2.94883 l -8.69223,0 -11.11512,-11.31083 c -8.76069,-8.91495 -11.11512,-12.19668 -11.11512,-15.49288 0,-2.30012 -1.17452,-5.24497 -2.61004,-6.5441 -1.7491,-1.58291 -2.4104,-3.72236 -2.0048,-6.48593 0.33289,-2.26812 -0.13534,-5.50768 -1.04052,-7.19902 -2.26598,-4.23402 -0.6463,-8.30441 4.32803,-10.87674 3.65452,-1.88982 4.18448,-2.95133 4.18448,-8.38151 0,-4.84339 0.70288,-6.68434 3.18012,-8.32916 2.83565,-1.8828 2.99039,-2.52793 1.42857,-5.95575 -0.96335,-2.11433 -1.75155,-4.85698 -1.75155,-6.09479 0,-4.64952 4.29232,1.25371 6.54436,9.00046 1.2264,4.21864 2.94551,7.67025 3.82026,7.67025 4.65948,0 14.22833,6.42359 16.71676,11.222 3.27004,6.30558 16.38644,20.20657 19.06608,20.20657 2.65632,0 8.13825,-6.08335 8.13825,-9.03111 0,-1.33012 -1.58008,-5.46726 -3.51129,-9.19364 -6.1555,-11.87738 -9.34585,-20.07979 -9.34585,-24.02825 0,-2.11108 -1.21637,-5.84278 -2.70304,-8.29266 -1.48667,-2.44989 -3.16371,-6.70434 -3.72675,-9.45434 -0.56305,-2.75 -2.30428,-8.02005 -3.86941,-11.71123 -1.56513,-3.69117 -2.62024,-7.36059 -2.34468,-8.15425 0.27557,-0.79366 4.78971,3.83353 10.03143,10.28266 5.24173,6.44912 14.16618,16.86854 19.83212,23.15425 5.66595,6.28571 13.64907,16.57143 17.74027,22.85714 4.09121,6.28572 12.41819,17.53572 18.5044,25 6.35154,7.78969 10.25302,13.6849 9.1579,13.83779 -1.04937,0.14649 -5.04224,0.68013 -8.87303,1.18585 -7.91619,1.04507 -13.74921,5.73711 -13.74921,11.05976 0,1.92087 -2.01461,5.30876 -4.71087,7.92208 -4.774,4.62715 -5.19906,4.77359 -10.28913,3.54475 l 0,0 z"
             id="pathMangochi1" />
          <path
             style="fill:#ffffff;fill-opacity:1;stroke:#000000;stroke-opacity:1"
             d="m 450.49974,563.15725 c -0.48229,-1.25682 -0.33537,-6.26428 0.32649,-11.1277 l 1.20339,-8.84256 8.38992,9.56488 c 4.61446,5.26069 8.05714,9.89767 7.6504,10.30441 -0.40674,0.40674 -4.32913,1.11 -8.71642,1.56281 -6.50037,0.6709 -8.13921,0.40031 -8.85378,-1.46184 l 0,0 z"
             id="pathMangochi2" />
        </g>
      </a>
    </g>
    <g
       inkscape:groupmode="layer"
       id="ntchisi"
       inkscape:label="ntchisi"
       style="display:inline"
       transform="translate(-195.29779,-48.605588)"
       sodipodi:insensitive="true">
      <a
         xlink:href="districts?district=ntchisi"
         id="a3662"
         target="_blank"
         onmouseover="setAttribute('fill-opacity','0.5')"
         onmouseout="setAttribute('fill-opacity','1.0')"
         style="fill:#ffffff;fill-opacity:1">
        <path
           onmouseout="setAttribute('fill-opacity','1.0')"
           onmouseover="setAttribute('fill-opacity','0.5')"
           id="pathNtchisi"
           d="m 352.72285,540.02361 c -1.15763,-1.39485 -3.56971,-2.09834 -6.28584,-1.83329 -2.42406,0.23655 -5.06936,-0.41141 -5.87843,-1.4399 -1.13108,-1.43784 -2.41272,-1.51197 -5.54583,-0.32077 -4.14148,1.57459 -9.4117,0.82794 -9.4117,-1.33338 0,-0.65381 -2.32109,-4.62835 -5.15798,-8.8323 -3.87839,-5.74735 -5.33731,-9.59436 -5.8809,-15.50722 l -0.72293,-7.86367 8.27348,-8.20776 c 4.55041,-4.51427 8.81987,-8.20776 9.48769,-8.20776 0.66782,0 1.8015,1.54469 2.51931,3.43265 0.7178,1.88797 1.9876,3.85448 2.82178,4.37003 0.83418,0.51555 1.51669,2.50657 1.51669,4.42448 0,4.50809 5.51429,4.79735 9.40915,0.49358 l 2.70912,-2.99354 0.82553,3.35069 c 0.46462,1.88583 1.81751,3.27355 3.09459,3.17426 2.45183,-0.19062 4.44419,6.13812 2.34145,7.43768 -1.72211,1.06433 -1.54926,6.85503 0.25859,8.66288 1.96796,1.96796 1.15083,22.25242 -0.92402,22.93773 -0.86422,0.28545 -2.41661,-0.49953 -3.44975,-1.74439 z"
           style="fill:#ffffff;fill-opacity:1;stroke:#000000;stroke-opacity:1" />
      </a>
    </g>
    <g
       inkscape:groupmode="layer"
       id="ntcheu"
       inkscape:label="ntcheu"
       style="display:inline"
       transform="translate(-195.29779,-48.605588)"
       sodipodi:insensitive="true">
      <a
         xlink:href="districts?district=ntcheu"
         target="_blank"
         id="a3665"
         style="fill:#ffffff;fill-opacity:1">
        <path
           onmouseout="setAttribute('fill-opacity','1.0')"
           onmouseover="setAttribute('fill-opacity','0.5')"
           id="pathNtcheu"
           d="m 443.17514,751.8101 c -0.9582,-1.46239 -2.92691,-2.21942 -9.71321,-3.73502 -9.46035,-2.1128 -14.15385,-3.8216 -15.29962,-5.57027 -0.92603,-1.4133 -0.50264,-7.52397 0.72027,-10.39552 1.17096,-2.74955 1.17771,-3.22408 0.0532,-3.73645 -1.12755,-0.51375 -1.12087,-0.92416 0.04,-2.45492 1.61037,-2.12352 2.33976,-4.14751 2.32869,-6.46184 -0.009,-1.80402 -0.2219,-2.51754 -1.35296,-4.52637 -3.97772,-7.06463 -4.12304,-7.59108 -3.12668,-11.32757 1.08144,-4.05556 0.38342,-7.15165 -3.62838,-16.094 -1.06658,-2.3774 -1.93923,-4.80888 -1.93923,-5.40328 0,-0.5944 0.43731,-2.02425 0.97179,-3.17746 1.28922,-2.78164 1.35744,-5.99887 0.17796,-8.39286 -0.448,-0.9093 -2.43736,-3.48072 -4.42081,-5.71428 -5.33919,-6.01244 -10.0588,-13.52877 -9.09813,-14.48943 0.13546,-0.13547 1.10745,0.17604 2.15998,0.69225 1.05252,0.51621 2.53464,1.04995 3.29359,1.1861 0.75895,0.13615 2.19899,0.62901 3.20009,1.09524 2.12882,0.99143 3.0916,1.06376 3.74118,0.28107 0.47094,-0.56745 2.00383,-0.55821 3.77827,0.0228 0.61238,0.2005 1.30057,-0.20832 3.39285,-2.01554 6.012,-5.1929 11.60452,-9.22632 12.79269,-9.22632 0.36374,0 1.05912,0.47274 1.54531,1.05054 1.37109,1.62946 1.81635,4.17397 1.54913,8.85277 -0.2617,4.58203 -0.20414,4.77803 2.14966,7.31898 1.94673,2.10152 2.29178,2.99389 2.02585,5.23925 -0.29956,2.52937 0.67199,3.99365 6.97139,10.5069 6.53885,6.76082 8.32969,8.88137 9.3935,11.12297 0.60902,1.28328 1.35464,2.11801 2.71164,3.03571 3.70146,2.50318 4.0743,5.42549 1.39108,10.90334 -0.93561,1.91007 -2.1779,4.76598 -2.76065,6.34646 -1.87714,5.09109 -6.77579,25.02475 -7.9644,32.40889 -0.47638,2.95948 -0.78029,3.66584 -1.7261,4.01195 -0.14292,0.0523 -0.43159,1.38081 -0.6415,2.95224 -0.45894,3.43579 -1.31282,6.60714 -1.77897,6.60714 -0.18641,0 -0.60826,-0.41104 -0.93743,-0.91343 l 0,0 z"
           style="fill:#ffffff;fill-opacity:1;stroke:#000000;stroke-opacity:1" />
      </a>
    </g>
    <g
       inkscape:groupmode="layer"
       id="mwanza"
       inkscape:label="mwanza"
       style="display:inline"
       transform="translate(-195.29779,-48.605588)"
       sodipodi:insensitive="true">
      <a
         xlink:href="districts?district=mwanza"
         id="a3712"
         target="_blank"
         style="fill:#ffffff;fill-opacity:1">
        <path
           onmouseout="setAttribute('fill-opacity','1.0')"
           onmouseover="setAttribute('fill-opacity','0.5')"
           id="pathMwanza"
           d="m 401.76733,812.37666 c -3.28712,-1.30683 -6.38884,-2.78833 -6.89273,-3.29222 -0.50388,-0.50388 0.84893,-3.58338 3.00626,-6.84332 3.52959,-5.33358 3.89471,-7.05282 3.64585,-17.16732 -0.25105,-10.20324 -0.006,-11.32588 2.65123,-12.16941 1.61029,-0.51108 4.00626,-2.64834 5.32438,-4.74947 1.31812,-2.10112 4.51528,-6.23279 7.1048,-9.18148 2.58952,-2.94869 4.70821,-6.39338 4.70821,-7.65487 0,-1.6548 0.89523,-2.0787 3.21429,-1.52199 1.76786,0.42439 5.71416,1.22521 8.76956,1.7796 4.42938,0.80369 5.87703,1.87063 7.14286,5.26441 1.58675,4.25421 1.59244,4.25601 10.87329,3.43758 7.72196,-0.68096 8.76462,-0.52863 6.19142,0.90455 -3.90026,2.1723 -8.31921,7.79424 -9.77573,12.43699 -0.61611,1.9639 -3.68989,5.91966 -6.83062,8.79057 -6.21902,5.68474 -8.57781,12.9171 -8.43182,25.85299 l 0.0766,6.78571 -12.40063,-0.14812 c -7.89692,-0.0943 -14.57124,-1.01108 -18.37721,-2.5242 z"
           style="fill:#ffffff;fill-opacity:1;stroke:#000000;stroke-opacity:1" />
      </a>
    </g>
    <g
       inkscape:groupmode="layer"
       id="chitipa"
       inkscape:label="chitipa"
       style="display:inline"
       transform="translate(-195.29779,-48.605588)"
       sodipodi:insensitive="true">
      <a
         xlink:href="districts?district=chitipa"
         id="a3671"
         target="_blank"
         style="fill:#ffffff;fill-opacity:1">
        <path
           onmouseout="setAttribute('fill-opacity','1.0')"
           onmouseover="setAttribute('fill-opacity','0.5')"
           id="pathChitipa"
           d="m 305.10884,177.54898 c -2.85034,-4.125 -6.31636,-9.07673 -7.70226,-11.00386 -1.78929,-2.48805 -2.51982,-6.19472 -2.51982,-12.78553 0,-9.03241 -0.13427,-9.36947 -5,-12.55149 -13.96749,-9.13425 -21.42857,-15.27342 -21.42857,-17.63196 0,-1.4168 1.30394,-5.61798 2.89765,-9.33595 3.58972,-8.37447 1.98659,-15.212438 -4.33258,-18.480211 -5.57431,-2.882587 -10.13328,-9.725113 -11.05422,-16.591191 -0.98346,-7.332283 -5.38437,-10.553004 -12.78007,-9.352849 -2.86763,0.465353 -5.58733,1.351017 -6.04376,1.968142 -0.45643,0.617125 -2.2047,1.165395 -3.88505,1.21838 -2.856,0.09005 -3.0073,-0.431466 -2.32102,-7.99992 l 0.73414,-8.096253 -4.46469,-0.892938 c -4.4322,-0.88644 -5.46859,-2.885637 -3.28164,-6.330294 0.83543,-1.315884 2.7147,-0.446009 7.04605,3.261473 9.46574,8.102316 16.85552,10.774526 24.98952,9.036427 6.47089,-1.382721 7.05842,-1.238356 12.5,3.071455 3.14047,2.487304 5.70996,5.0947 5.70996,5.794214 0,2.753609 8.91665,5.905123 14.11726,4.989629 11.97042,-2.107222 13.5465,-1.812192 14.87335,2.784158 0.68045,2.357143 1.81144,6.155567 2.51331,8.440942 1.1224,3.654624 0.64057,4.859382 -3.99934,10 -2.90151,3.214626 -8.50917,7.779886 -12.46146,10.145016 -9.51664,5.69497 -9.45122,8.61073 0.3013,13.42912 4.11801,2.03456 7.49301,4.434 7.5,5.33208 0.0161,2.06286 3.35703,3.36713 8.62508,3.36713 3.68305,0 5.53133,2.1418 18.45459,21.38526 7.89889,11.7619 14.36162,21.63295 14.36162,21.93567 0,0.76294 -25.17668,12.39335 -26.82824,12.39335 -0.73627,0 -3.67077,-3.375 -6.52111,-7.5 z"
           style="fill:#ffffff;fill-opacity:1;stroke:#000000;stroke-opacity:1" />
      </a>
    </g>
    <g
       inkscape:groupmode="layer"
       id="karonga"
       inkscape:label="karonga"
       style="display:inline"
       transform="translate(-195.29779,-48.605588)"
       sodipodi:insensitive="true">
      <a
         xlink:href="districts?district=karonga"
         id="a3674"
         target="_blank"
         style="fill:#ffffff;fill-opacity:1">
        <path
           onmouseout="setAttribute('fill-opacity','1.0')"
           onmouseover="setAttribute('fill-opacity','0.5')"
           id="pathKaronga"
           d="m 348.61813,177.54898 c -7.72422,-8.01775 -18.75954,-23.70144 -30.87423,-43.87931 -3.8905,-6.4799 -4.77016,-7.14064 -9.53917,-7.16513 -3.88235,-0.0199 -5.98665,-0.9591 -8.06274,-3.59841 -1.54511,-1.96429 -3.68105,-3.57567 -4.74654,-3.58085 -1.0655,-0.005 -3.77647,-1.22197 -6.02439,-2.704 l -4.08714,-2.69458 6.24299,-3.65863 c 3.43364,-2.01225 8.45253,-5.93831 11.15308,-8.72458 2.70056,-2.786262 5.71034,-5.065935 6.68841,-5.065935 3.01214,0 3.58512,-2.588877 1.49256,-6.74376 -1.09984,-2.18379 -2.36524,-6.343185 -2.81199,-9.243102 -0.65454,-4.248719 -0.40594,-5.116649 1.28025,-4.469598 1.15089,0.441638 3.22066,-0.217971 4.5995,-1.465797 2.31927,-2.09891 3.07924,-1.817747 10.15051,3.755312 7.56457,5.961847 7.64811,6.112648 8.0854,14.595516 0.26114,5.065815 1.63849,10.885974 3.3677,14.230634 1.60922,3.11256 2.92586,7.32695 2.92586,9.36531 0,2.03836 1.60714,5.88447 3.57143,8.54691 1.96428,2.66244 3.58652,5.84091 3.60497,7.06326 0.0184,1.22235 5.76289,8.61617 12.76542,16.43071 16.308,18.19905 17.08181,19.61805 13.7624,25.23736 -1.40591,2.38001 -2.2226,5.60296 -1.81487,7.16211 0.54222,2.07348 -0.21241,3.19742 -2.80987,4.18498 -7.23929,2.75237 -10.05263,1.62545 -18.91954,-7.57842 z"
           style="fill:#ffffff;fill-opacity:1;stroke:#000000;stroke-opacity:1" />
      </a>
    </g>
    <g
       inkscape:groupmode="layer"
       id="nsanje"
       inkscape:label="nsanje"
       style="display:inline"
       transform="translate(-195.29779,-48.605588)"
       sodipodi:insensitive="true">
      <a
         xlink:href="districts?district=nsanje"
         id="a3715"
         target="_blank"
         style="fill:#ffffff;fill-opacity:1">
        <path
           onmouseout="setAttribute('fill-opacity','1.0')"
           onmouseover="setAttribute('fill-opacity','0.5')"
           id="pathNsanje"
           d="m 482.38676,971.20709 c -1.375,-0.35932 -2.5,-1.49175 -2.5,-2.5165 0,-1.02476 -0.99904,-2.69232 -2.22009,-3.70571 -1.93485,-1.60578 -1.39671,-2.355 4.18847,-5.8313 l 6.40857,-3.98879 -0.81062,-8.27219 c -0.44585,-4.5497 -1.41871,-9.04398 -2.16193,-9.98728 -0.74322,-0.9433 -4.65834,-1.90758 -8.70028,-2.14286 -6.19628,-0.36067 -7.62673,-0.98794 -9.11977,-3.99919 -0.97393,-1.96429 -3.23955,-3.91921 -5.03471,-4.34428 -4.74569,-1.12371 -5.0226,-6.33412 -0.49431,-9.30117 2.01243,-1.31859 3.65896,-3.17327 3.65896,-4.12151 0,-0.94824 1.91015,-4.2493 4.24479,-7.3357 2.33463,-3.08639 5.61468,-9.6696 7.289,-14.62935 2.72492,-8.07193 3.29108,-8.81463 5.39806,-7.08125 1.29462,1.06507 4.19957,2.86263 6.45543,3.99457 6.27187,3.1471 6.08468,5.20662 -1.07961,11.87831 -8.81452,8.20847 -8.64461,11.01434 1.21962,20.14052 9.53525,8.82181 11.36069,14.69181 8.15027,26.20865 -1.56572,5.61677 -1.71235,8.36198 -0.57229,10.71429 0.84303,1.73945 1.84234,5.89478 2.22068,9.23406 l 0.68789,6.07143 -7.36407,-0.16571 c -4.05023,-0.0911 -8.48906,-0.45971 -9.86406,-0.81904 z"
           style="fill:#ffffff;fill-opacity:1;stroke:#000000;stroke-opacity:1" />
      </a>
    </g>
    <g
       inkscape:groupmode="layer"
       id="mzimba"
       inkscape:label="mzimba"
       style="display:inline"
       transform="translate(-195.29779,-48.605588)"
       sodipodi:insensitive="true">
      <a
         xlink:href="districts?district=mzimba"
         onmouseout="setAttribute('fill-opacity','1.0')"
         onmouseover="setAttribute('fill-opacity','0.5')"
         target="_blank"
         id="a2908"
         style="fill:#ffffff;fill-opacity:1">
        <path
           id="pathMzimba"
           d="m 300.2439,441.33111 c -6.42545,-5.38734 -7.15878,-7.43691 -4.29921,-12.0158 1.41056,-2.25867 1.41056,-3.41684 0,-5.67551 -2.41807,-3.87193 -2.24232,-5.26357 1.08493,-8.59082 4.46593,-4.46592 3.67634,-10.06057 -2.06657,-14.64285 -4.11318,-3.28192 -6.3061,-3.92857 -13.32237,-3.92857 -6.932,0 -8.94119,-0.57742 -11.5049,-3.30636 -1.78784,-1.90307 -3.10616,-5.15604 -3.10616,-7.66449 0,-2.39697 -1.28572,-5.99265 -2.85714,-7.9904 -3.54256,-4.50362 -3.53903,-4.83897 0.16527,-15.72668 2.50582,-7.36509 3.01633,-12.21563 2.98673,-28.37814 -0.0371,-20.25607 -1.04232,-24.64324 -6.00763,-26.21917 -4.09612,-1.30006 -4.09724,-12.11113 -0.002,-14.66895 1.57143,-0.98137 2.85715,-2.68143 2.85715,-3.77792 0,-1.09648 2.89285,-7.4779 6.42857,-14.18093 3.53571,-6.70302 6.42857,-13.51474 6.42857,-15.13714 0,-1.76314 0.92822,-2.94982 2.30733,-2.94982 1.26903,0 4.38437,-2.26761 6.92298,-5.03912 l 4.61565,-5.03912 7.89552,2.05653 c 4.34255,1.13108 9.21072,2.87787 10.81817,3.88174 2.38309,1.48826 3.34311,1.47624 5.20035,-0.0651 1.25275,-1.03969 2.10852,-2.92958 1.90172,-4.19976 -0.31147,-1.91304 1.3404,-2.37625 9.62399,-2.69873 7.95265,-0.3096 10.49228,-0.97592 12.40445,-3.25454 2.38334,-2.8401 2.44915,-2.82598 7.5,1.60872 5.79978,5.09228 5.94401,5.86478 2.81538,15.07994 -2.96849,8.74349 -0.95611,25.05868 3.61627,29.31849 3.68989,3.43766 3.68724,4.3459 -0.0195,6.66078 -2.4083,1.50401 -3.38361,1.51021 -5.16374,0.0328 -1.83146,-1.51998 -2.64038,-1.27094 -4.88806,1.50482 -1.48137,1.82942 -2.6934,4.21928 -2.6934,5.31081 0,1.40144 -1.90002,1.98459 -6.46616,1.98459 -5.77473,0 -7.16518,0.69901 -13.0031,6.53694 -6.36103,6.36102 -6.51047,6.71342 -5.55341,13.09556 1.15155,7.67906 4.03417,12.63291 7.94634,13.65597 4.00449,1.0472 3.43963,5.10692 -0.94237,6.77296 -3.16793,1.20444 -3.5888,2.00998 -2.78043,5.32178 0.52391,2.14638 0.94737,5.16841 0.94104,6.71563 -0.006,1.54722 0.63195,3.21081 1.4184,3.69687 0.88723,0.54834 0.47055,2.55532 -1.09792,5.28823 -2.42253,4.22101 -2.41992,4.63081 0.0628,9.83708 l 2.59062,5.43258 -3.81182,3.27879 c -2.3101,1.98707 -4.04651,5.17091 -4.40752,8.08157 -0.62161,5.01174 0.42809,5.88644 10.45738,8.71404 1.95111,0.55009 3.54287,2.40935 4.05687,4.73865 2.33862,10.5978 3.69859,13.12667 7.48602,13.92028 2.09966,0.43997 5.08302,1.49713 6.62967,2.34923 1.54666,0.85211 4.43952,1.99427 6.42858,2.53811 3.24718,0.88785 2.51892,1.4984 -7.13198,5.97938 -6.62087,3.07411 -11.74404,6.51004 -13.34105,8.94737 -2.35836,3.59931 -3.13889,3.87488 -8.63914,3.05007 -4.83071,-0.72442 -6.7895,-0.32232 -9.74142,1.99966 -2.03219,1.59852 -3.91492,2.89381 -4.18384,2.87844 -0.26893,-0.0154 -3.22111,-2.3187 -6.56039,-5.11849 l -1e-5,0 z"
           style="fill:#ffffff;fill-opacity:1;stroke:#000000;stroke-opacity:1" />
      </a>
    </g>
    <g
       inkscape:groupmode="layer"
       id="nkhata bay"
       inkscape:label="nkhata bay"
       style="display:inline"
       transform="translate(-195.29779,-48.605588)"
       sodipodi:insensitive="true">
      <a
         xlink:href="districts?district=nkhatabay"
         onmouseout="setAttribute('fill-opacity','1.0')"
         onmouseover="setAttribute('fill-opacity','0.5')"
         id="a3683"
         target="_blank"
         style="fill:#ffffff;fill-opacity:1">
        <path
           id="pathNkhataBay"
           d="m 339.88676,383.99966 c -1.17857,-0.45307 -4.07143,-2.17178 -6.42857,-3.81938 -2.35714,-1.64759 -5.57143,-3.7017 -7.14286,-4.56469 -2.83155,-1.55501 -4.91507,-9.13803 -2.51079,-9.13803 0.68773,0 2.36424,-0.81445 3.72558,-1.80988 2.33586,-1.70802 2.32302,-1.97318 -0.22814,-4.71153 -1.48681,-1.5959 -3.13498,-5.20273 -3.6626,-8.01516 -0.81368,-4.33729 -0.53062,-5.22561 1.8647,-5.852 1.5532,-0.40618 3.25756,-2.46592 3.78746,-4.57721 0.81344,-3.24103 0.15629,-4.50405 -4.22066,-8.11191 -3.03473,-2.50148 -5.19319,-5.56274 -5.20599,-7.38346 -0.012,-1.71066 -0.6253,-4.06463 -1.36282,-5.23106 -0.95502,-1.51041 -0.44181,-3.07786 1.78322,-5.44629 4.37777,-4.65993 11.9166,-9.10126 14.92469,-8.79254 4.89224,0.50208 6.18061,-0.0997 7.79386,-3.64039 1.13761,-2.49679 2.76212,-3.57143 5.39885,-3.57143 2.07438,0 5.53657,-0.80357 7.69375,-1.78572 3.4819,-1.58526 3.82231,-2.33353 3.03266,-6.66608 -0.48922,-2.6842 -2.41804,-6.08272 -4.28626,-7.55226 -2.61039,-2.05334 -3.13304,-3.38482 -2.2576,-5.75137 0.74133,-2.00401 0.37539,-4.41027 -1.04786,-6.89014 -2.03242,-3.54129 -1.93122,-4.40554 1.43155,-12.22541 2.59698,-6.03907 5.25443,-9.57228 9.41284,-12.51481 8.34623,-5.90586 9.47023,-4.47785 8.29547,10.53913 -0.88113,11.26353 -0.63589,13.31337 2.49827,20.88237 1.91142,4.61607 3.89279,12.25 4.40305,16.96429 0.51026,4.71428 1.96828,12.91136 3.24005,18.21572 l 2.31229,9.64429 -8.87731,8.21285 c -7.54597,6.98117 -8.99501,9.11766 -9.66219,14.24609 -0.53884,4.14198 -1.60349,6.29305 -3.3963,6.86207 -4.94007,1.56791 -9.55464,8.82581 -10.61032,16.68813 -1.87625,13.9736 -4.67778,18.11012 -10.69802,15.79581 z"
           style="fill:#ffffff;fill-opacity:1;stroke:#000000;stroke-opacity:1" />
      </a>
    </g>
    <g
       inkscape:groupmode="layer"
       id="phalombe"
       inkscape:label="phalombe"
       style="display:inline"
       transform="translate(-195.29779,-48.605588)"
       sodipodi:insensitive="true">
      <a
         xlink:href="districts?district=phalombe"
         id="a3718"
         target="_blank"
         style="fill:#ffffff;fill-opacity:1">
        <path
           onmouseout="setAttribute('fill-opacity','0.5')"
           onmouseover="setAttribute('fill-opacity','0.5')"
           id="pathPhalombe"
           d="m 557.75568,826.51467 c -2.19038,-6.90127 -15.31946,-11.25892 -19.33698,-6.4181 -1.61034,1.94034 -2.21966,1.818 -5.33637,-1.07143 -3.35007,-3.10576 -3.47658,-3.82022 -2.64353,-14.92864 1.02377,-13.65166 1.67803,-15.79881 5.14987,-16.90073 1.41945,-0.45052 4.26358,-2.50189 6.3203,-4.5586 3.14378,-3.14378 4.26404,-3.50048 7.03234,-2.23916 1.81107,0.82518 6.21611,1.17083 9.78898,0.76812 l 6.49612,-0.73221 -1.08013,6.95039 c -0.59407,3.82271 -1.5451,14.82539 -2.1134,24.45039 -0.9794,16.58757 -2.26802,21.01032 -4.2772,14.67997 z"
           style="fill:#ffffff;fill-opacity:1;stroke:#000000;stroke-opacity:1" />
      </a>
    </g>
    <g
       inkscape:groupmode="layer"
       id="balaka"
       inkscape:label="balaka"
       style="display:inline"
       transform="translate(-195.29779,-48.605588)"
       sodipodi:insensitive="true">
      <a
         xlink:href="districts?district=balaka"
         id="a3689"
         target="_blank"
         style="fill:#ffffff;fill-opacity:1">
        <path
           onmouseout="setAttribute('fill-opacity','1.0')"
           onmouseover="setAttribute('fill-opacity','0.5')"
           id="pathBalaka"
           d="m 449.11465,751.12041 c 0.53594,-2.94643 2.85544,-13.07143 5.15444,-22.5 2.29901,-9.42857 4.18206,-18.23591 4.18456,-19.57187 0.002,-1.33596 0.9917,-2.98145 2.19823,-3.65666 1.20652,-0.67521 2.69626,-3.11787 3.31052,-5.42813 1.07608,-4.0472 1.48351,-4.22655 11.16471,-4.91477 5.52633,-0.39285 11.06693,-1.56246 12.31244,-2.59913 4.28777,-3.56879 11.01864,2.63834 11.01864,10.16126 0,1.90534 -1.84686,6.92974 -4.10413,11.16535 -2.25728,4.2356 -4.56866,10.46209 -5.1364,13.83664 -1.22122,7.25862 -6.57385,17.3162 -12.22115,22.96349 -3.24868,3.24869 -5.79014,4.22608 -12.92905,4.97224 -16.14123,1.6871 -16.06907,1.70846 -14.95281,-4.42842 z"
           style="fill:#ffffff;fill-opacity:1;stroke:#000000;stroke-opacity:1" />
      </a>
    </g>
    <g
       inkscape:groupmode="layer"
       id="blantyre"
       inkscape:label="blantyre"
       style="display:inline"
       transform="translate(-195.29779,-48.605588)"
       sodipodi:insensitive="true">
      <a
         xlink:href="districts?district=blantyre"
         id="a3692"
         target="_blank"
         style="fill:#ffffff;fill-opacity:1">
        <path
           onmouseout="setAttribute('fill-opacity','1.0')"
           onmouseover="setAttribute('fill-opacity','0.5')"
           id="pathBlantyre"
           d="m 453.7013,834.94579 c -1.69348,-1.97785 -2.05578,-4.40524 -1.43713,-9.62878 0.82441,-6.96087 0.81165,-6.98736 -3.81083,-7.91185 -2.5509,-0.51018 -6.08263,-0.9276 -7.84828,-0.9276 -2.6559,0 -3.3727,-1.01575 -4.15084,-5.88199 -0.73595,-4.60238 -0.42097,-6.26193 1.44787,-7.62846 1.79277,-1.3109 2.16093,-2.96144 1.4762,-6.61801 -0.81269,-4.33991 -0.31294,-5.43558 4.57931,-10.03995 3.02036,-2.84263 6.8875,-7.98549 8.59365,-11.42858 5.25775,-10.61039 6.77759,-12.04155 10.60974,-9.99064 1.81912,0.97356 6.07271,4.98033 9.45242,8.90394 5.39672,6.26521 6.0221,7.68913 5.13611,11.69447 -1.17374,5.30621 -1.14879,17.09948 0.0587,27.74128 0.75727,6.67402 0.4646,7.84891 -2.75791,11.07142 -1.98279,1.9828 -5.17485,3.60509 -7.09345,3.60509 -2.17647,0 -5.08725,1.82102 -7.73979,4.84209 -4.07988,4.64673 -4.34278,4.7354 -6.51574,2.19757 l 0,0 z"
           style="fill:#ffffff;fill-opacity:1;stroke:#000000;stroke-opacity:1" />
      </a>
    </g>
    <g
       inkscape:groupmode="layer"
       id="thyolo"
       inkscape:label="thyolo"
       style="display:inline"
       transform="translate(-195.29779,-48.605588)"
       sodipodi:insensitive="true">
      <a
         xlink:href="districts?district=thyolo"
         id="a3724"
         target="_blank"
         style="fill:#ffffff;fill-opacity:1">
        <path
           onmouseout="setAttribute('fill-opacity','1.0')"
           onmouseover="setAttribute('fill-opacity','0.5')"
           id="pathThyolo"
           d="m 489.88676,882.80507 c -5.17691,-2.78767 -31.42857,-34.02997 -31.42857,-37.40338 0,-3.83377 7.50415,-13.20985 10.5725,-13.20985 1.67749,0 5.4151,-1.60714 8.3058,-3.57143 2.89071,-1.96428 5.8807,-3.57143 6.64442,-3.57143 2.39503,0 10.17307,4.93004 10.18253,6.4541 0.005,0.79975 1.62929,3.83851 3.60959,6.75279 4.89493,7.20352 5.89625,13.02518 3.00049,17.44467 -1.27647,1.94814 -2.30094,5.65208 -2.2766,8.23097 0.0741,7.85138 -2.09458,20.15818 -3.61016,20.48688 -0.78571,0.1704 -3.03571,-0.55559 -5,-1.61332 z"
           style="fill:#ffffff;fill-opacity:1;stroke:#000000;stroke-opacity:1;display:inline" />
      </a>
    </g>
    <g
       inkscape:groupmode="layer"
       id="chiradzulu"
       inkscape:label="chiradzulu"
       style="display:inline"
       transform="translate(-195.29779,-48.605588)"
       sodipodi:insensitive="true">
      <a
         xlink:href="districts?district=chiradzulu"
         id="a3698"
         target="_blank"
         style="fill:#ffffff;fill-opacity:1">
        <path
           onmouseout="setAttribute('fill-opacity','1.0')"
           onmouseover="setAttribute('fill-opacity','0.5')"
           id="pathChiradzulu"
           d="m 499.37346,830.69677 c -0.63624,-3.18123 -2.02956,-4.75629 -5.17857,-5.85404 -2.36947,-0.826 -4.30813,-2.08179 -4.30813,-2.79064 0,-0.70885 -1.60714,-1.28882 -3.57143,-1.28882 -3.45713,0 -3.57143,-0.3089 -3.57143,-9.65229 0,-5.30876 -0.62153,-11.81944 -1.38118,-14.46818 -1.48333,-5.1721 0.10721,-10.18526 3.21716,-10.13998 0.9545,0.0139 3.3426,1.96558 5.30688,4.33707 1.96429,2.37148 5.09115,5.99834 6.94858,8.05967 3.05164,3.38664 3.42587,5.30935 3.88273,19.94865 0.27807,8.91043 0.28514,16.20077 0.0157,16.20077 -0.26943,0 -0.88157,-1.95849 -1.36032,-4.35221 z"
           style="fill:#ffffff;fill-opacity:1;stroke:#000000;stroke-opacity:1" />
      </a>
    </g>
    <g
       inkscape:groupmode="layer"
       id="machinga"
       inkscape:label="machinga"
       style="display:inline"
       transform="translate(-195.29779,-48.605588)"
       sodipodi:insensitive="true">
      <a
         xlink:href="districts?district=machinga"
         id="a3701"
         target="_blank"
         style="fill:#ffffff;fill-opacity:1">
        <path
           onmouseout="setAttribute('fill-opacity','1.0')"
           onmouseover="setAttribute('fill-opacity','0.5')"
           id="pathMachinga"
           d="m 490.95819,745.45682 c -3.04582,-0.75212 -3.04207,-0.48668 -0.13417,-9.50182 3.48742,-10.81179 4.09485,-12.41477 7.43999,-19.63392 2.27523,-4.91016 3.05132,-9.36122 3.05132,-17.5 0,-6.00322 0.44697,-10.91495 0.99326,-10.91495 0.54629,0 2.74743,1.6806 4.89142,3.73467 2.57693,2.46886 6.03026,3.97499 10.18875,4.44371 5.9726,0.6732 6.5519,0.40377 11.45962,-5.3298 2.84297,-3.32137 5.36464,-7.34583 5.60371,-8.94325 0.68256,-4.56075 6.80286,-7.8974 16.37002,-8.92457 l 8.79249,-0.94399 3.70751,5.45609 c 3.24563,4.77638 3.70751,6.91481 3.70751,17.16529 0,8.48868 0.58771,12.29691 2.13681,13.846 2.48853,2.48854 2.11965,3.63387 -5.47405,16.99585 -4.45582,7.84052 -6.14246,9.64285 -9.02389,9.64285 -1.94908,0 -5.65086,1.60715 -8.22618,3.57143 -2.86692,2.18671 -6.56871,3.57452 -9.54754,3.5794 -2.67583,0.004 -7.30762,0.68622 -10.29286,1.5152 -3.87016,1.07472 -7.64246,1.04746 -13.1456,-0.095 -4.85228,-1.00734 -8.67163,-1.11288 -10.28658,-0.28426 -3.63574,1.86548 -9.27789,2.84548 -12.21154,2.12105 z"
           style="fill:#ffffff;fill-opacity:1;stroke:#000000;stroke-opacity:1" />
      </a>
    </g>
    <g
       inkscape:groupmode="layer"
       id="zomba"
       inkscape:label="zomba"
       style="display:inline"
       transform="translate(-195.29779,-48.605588)"
       sodipodi:insensitive="true">
      <a
         xlink:href="districts?district=zomba"
         id="a3721"
         target="_blank"
         style="fill:#ffffff;fill-opacity:1">
        <path
           onmouseout="setAttribute('fill-opacity','1.0')"
           onmouseover="setAttribute('fill-opacity','0.5')"
           id="pathZomba"
           d="m 500.2439,796.52105 c -1.76785,-1.65657 -3.21428,-3.6641 -3.21428,-4.46119 0,-3.17333 -7.96129,-11.29651 -11.07143,-11.29655 -2.26189,-3e-5 -3.21429,-0.84661 -3.21429,-2.85718 0,-1.57143 -0.94946,-2.85715 -2.10992,-2.85715 -1.16046,0 -3.20771,-1.76785 -4.54945,-3.92857 -1.34175,-2.16071 -3.64426,-5.29584 -5.11671,-6.96696 -2.64151,-2.99791 -2.62883,-3.05053 0.95182,-3.94921 1.99596,-0.50095 5.90647,-2.91046 8.69004,-5.35447 4.55236,-3.99702 5.99373,-4.44364 14.34086,-4.44364 6.89032,0 9.59843,-0.5693 10.51712,-2.21091 1.10978,-1.98308 2.05173,-1.95473 9.141,0.27512 7.23787,2.27659 8.26854,2.29737 12.23425,0.24662 2.3818,-1.23167 7.49005,-2.2394 11.35168,-2.2394 4.96489,0 8.13582,-0.87681 10.82723,-2.99387 6.78358,-5.33597 10.0028,-1.21305 14.50346,18.57483 1.83739,8.07838 1.96435,10.6891 0.59978,12.33332 -2.32915,2.80645 -10.18681,2.63829 -15.35637,-0.32863 -4.20157,-2.41137 -4.2124,-2.40793 -8.77518,2.7888 -2.51264,2.86173 -5.70038,5.56241 -7.08388,6.00152 -1.38349,0.4391 -4.67236,3.67706 -7.30858,7.19545 -5.11949,6.83265 -5.81133,7.2108 -15.71429,8.5892 -5.33381,0.74242 -6.97595,0.38188 -9.64286,-2.11713 l 0,0 z"
           style="fill:#ffffff;fill-opacity:1;stroke:#000000;stroke-opacity:1" />
      </a>
    </g>
    <g
       inkscape:groupmode="layer"
       id="mulanje"
       inkscape:label="mulanje"
       style="display:inline"
       transform="translate(-195.29779,-48.605588)"
       sodipodi:insensitive="true">
      <a
         xlink:href="districts?district=mulanje"
         id="a3709"
         target="_blank"
         style="fill:#ffffff;fill-opacity:1">
        <path
           onmouseout="setAttribute('fill-opacity','1.0')"
           onmouseover="setAttribute('fill-opacity','0.5')"
           id="pathMulanje"
           d="m 506.24334,851.8347 c -0.0396,-3.33929 -0.29909,-14.62826 -0.57665,-25.08661 -0.5816,-21.91399 -0.24989,-22.6694 10.85614,-24.72311 3.81445,-0.70536 7.78012,-2.4028 8.8126,-3.77209 1.5875,-2.10536 1.72581,-1.12412 0.89612,6.35751 -1.28183,11.55873 -0.21464,15.23504 5.74131,19.77786 5.15267,3.93013 10.77104,3.85198 10.77104,-0.14983 0,-2.47365 1.98627,-2.60385 6.16535,-0.40415 3.98842,2.09934 5.21413,3.98491 5.24135,8.06304 0.0155,2.32236 0.75012,3.15464 2.52188,2.85715 1.79333,-0.30112 2.62705,0.68327 2.94949,3.4825 0.39003,3.38601 -0.36595,4.26565 -5.71429,6.64901 -17.29794,7.7084 -22.46157,8.70576 -34.02133,6.5713 -4.19548,-0.77468 -5.55786,-0.32994 -8.46331,2.76277 -1.90459,2.02734 -3.83297,3.68608 -4.2853,3.68608 -0.45232,0 -0.8548,-2.73215 -0.8944,-6.07143 z"
           style="fill:#ffffff;fill-opacity:1;stroke:#000000;stroke-opacity:1" />
      </a>
    </g>
  </g>
</svg>
