<?xml version="1.0" encoding="UTF-8" standalone="no"?>
<!-- Created with Inkscape (http://www.inkscape.org/) -->

<svg
   xmlns:dc="http://purl.org/dc/elements/1.1/"
   xmlns:cc="http://creativecommons.org/ns#"
   xmlns:rdf="http://www.w3.org/1999/02/22-rdf-syntax-ns#"
   xmlns:svg="http://www.w3.org/2000/svg"
   xmlns="http://www.w3.org/2000/svg"
   xmlns:sodipodi="http://sodipodi.sourceforge.net/DTD/sodipodi-0.dtd"
   xmlns:inkscape="http://www.inkscape.org/namespaces/inkscape"
   width="183.60866"
   height="450.95551"
   id="svg3056"
   version="1.1"
   inkscape:version="0.47pre4 r22446"
   sodipodi:docname="north.svg">
  <defs
     id="defs3058">
    <inkscape:perspective
       sodipodi:type="inkscape:persp3d"
       inkscape:vp_x="0 : 526.18109 : 1"
       inkscape:vp_y="0 : 1000 : 0"
       inkscape:vp_z="744.09448 : 526.18109 : 1"
       inkscape:persp3d-origin="372.04724 : 350.78739 : 1"
       id="perspective3064" />
    <inkscape:perspective
       id="perspective3051"
       inkscape:persp3d-origin="0.5 : 0.33333333 : 1"
       inkscape:vp_z="1 : 0.5 : 1"
       inkscape:vp_y="0 : 1000 : 0"
       inkscape:vp_x="0 : 0.5 : 1"
       sodipodi:type="inkscape:persp3d" />
  </defs>
  <sodipodi:namedview
     id="base"
     pagecolor="#ffffff"
     bordercolor="#666666"
     borderopacity="1.0"
     inkscape:pageopacity="0.0"
     inkscape:pageshadow="2"
     inkscape:zoom="0.35"
     inkscape:cx="-221.7671"
     inkscape:cy="285.47775"
     inkscape:document-units="px"
     inkscape:current-layer="layer1"
     showgrid="false"
     inkscape:window-width="832"
     inkscape:window-height="615"
     inkscape:window-x="524"
     inkscape:window-y="41"
     inkscape:window-maximized="0" />
  <metadata
     id="metadata3061">
    <rdf:RDF>
      <cc:Work
         rdf:about="">
        <dc:format>image/svg+xml</dc:format>
        <dc:type
           rdf:resource="http://purl.org/dc/dcmitype/StillImage" />
        <dc:title />
      </cc:Work>
    </rdf:RDF>
  </metadata>
  <g
     inkscape:label="Layer 1"
     inkscape:groupmode="layer"
     id="layer1"
     transform="translate(-88.195671,-366.88443)">
    <path
       d="m 179.18411,815.49032 c -8.15076,-5.49103 -10.04186,-8.76609 -8.06466,-13.96656 1.1077,-2.91358 0.9377,-6.90174 -0.4511,-10.58106 -1.9314,-5.11689 -1.6298,-6.50401 2.25956,-10.39342 5.1161,-5.1161 4.6142,-9.46056 -1.03066,-8.92215 -2.1018,0.20041 -4.5493,-0.93595 -5.4388,-2.52538 -1.0638,-1.90091 -5.0488,-2.88989 -11.6446,-2.88989 -9.8419,0 -10.0992,-0.15879 -13.9049,-8.58629 -2.1325,-4.72247 -4.3878,-9.95001 -5.0116,-11.61676 -0.6238,-1.66675 -2.2063,-4.51758 -3.5166,-6.33519 -1.8648,-2.58688 -1.6335,-5.68526 1.0648,-14.26378 2.6254,-8.34707 3.3106,-16.70831 2.8745,-35.08106 l -0.5725,-24.12202 -5.7146,-0.6546 c -4.1269,-0.47271 -5.3899,-1.50094 -4.5457,-3.70075 0.6429,-1.6754 1.1689,-7.16023 1.1689,-12.18848 0,-7.29644 0.6119,-8.90749 3.0305,-7.97938 1.9345,0.74234 3.0304,-0.0351 3.0304,-2.15015 0,-1.82219 1.262,-4.74834 2.8044,-6.50259 1.5424,-1.75426 5.332,-8.0729 8.4212,-14.04145 4.4849,-8.6648 5.1455,-11.51503 3.2778,-14.14213 -5.2283,-7.35396 -10.4628,-18.52261 -10.4628,-22.32395 0,-2.22331 -1.9162,-5.82763 -4.2582,-8.00958 l -4.2583,-3.96721 8.0273,-4.09526 c 4.4151,-2.2524 12.0701,-5.11322 17.0111,-6.35738 7.1324,-1.79596 11.2739,-4.83439 20.09726,-14.74467 6.1124,-6.8654 11.6976,-14.04289 12.4115,-15.94996 0.8675,-2.3177 -1.4982,-7.00471 -7.1348,-14.13563 -7.37706,-9.33264 -8.52976,-12.1866 -9.20756,-22.79656 -0.7668,-12.00118 -0.8818,-12.20248 -10.9718,-19.19941 -5.6083,-3.88908 -11.8998,-7.73108 -13.9811,-8.53776 -5.8443,-2.26509 -6.726,-7.4487 -3.0348,-17.84152 4.6653,-13.13525 4.3697,-14.81319 -3.6925,-20.96255 -8.0629,-6.14982 -13.1299,-14.73969 -13.1299,-22.25837 0,-4.41121 -0.8977,-5.15109 -6.25,-5.15109 -4.551,0 -6.5374,1.09844 -7.3067,4.04061 -1.2633,4.83055 -0.414,4.7502 -9.6074,0.90895 -5.320698,-2.22314 -7.148098,-4.03591 -6.298998,-6.2486 3.935599,-10.25614 3.656799,-12.7691 -1.6402,-14.78303 -6.0433,-2.29767 -7.2199,-10.08268 -2.1587,-14.28313 2.5873,-2.14724 4.0155,-1.72781 8.586299,2.52154 10.451099,9.71617 16.360299,12.33035 27.018899,11.9531 11.0852,-0.39235 20.8071,4.14519 25.5807,11.93935 2.2143,3.61556 3.9381,4.15991 10.1015,3.1899 4.0873,-0.64328 13.79546,-1.42446 21.57366,-1.73595 13.1461,-0.52646 14.7993,-0.10276 23.4747,6.01622 5.133,3.62041 10.3605,6.58256 11.6168,6.58256 2.8259,0 3.0013,3.35888 0.2638,5.05076 -2.9707,1.83601 -2.3259,15.3774 1.0101,21.21321 1.588,2.77791 2.9195,7.04822 2.9589,9.48955 0.1192,7.39031 9.3938,22.54481 25.0977,41.00891 16.138,18.97451 19.3999,25.07353 14.4301,26.98063 -1.6999,0.6523 -3.0907,3.37606 -3.0907,6.0528 0,2.67673 -1.3842,6.0156 -3.0761,7.4197 -1.9844,1.64696 -2.5844,4.06484 -1.6905,6.81337 2.2817,7.01593 2.9522,16.6382 3.7739,54.16062 0.6043,27.59819 1.5182,37.17961 4.0045,41.98769 3.1144,6.02259 6.2976,22.53239 8.3819,43.47259 0.9917,9.96438 0.8801,10.20575 -8.2246,17.77822 -6.6152,5.50189 -9.23,9.16151 -9.23,12.91787 0,3.47935 -2.4117,7.35055 -7.1742,11.5162 -5.5875,4.88718 -7.8057,8.95603 -10.0296,18.39686 -1.5704,6.66701 -2.8877,14.76285 -2.9273,17.99079 -0.068,5.55673 -0.2685,5.69108 -3.7666,2.52539 -2.032,-1.83899 -5.0914,-3.34359 -6.7986,-3.34359 -1.7072,0 -5.4229,-1.82401 -8.257,-4.05338 l -5.1531,-4.05338 -6.2311,5.24312 c -8.4466,7.10735 -8.0404,12.0852 1.3451,16.4848 6.3016,2.95401 7.8939,4.98452 9.4653,12.07048 2.075,9.35678 7.5003,12.69416 20.6357,12.69416 3.7232,0 6.7695,0.38022 6.7695,0.84491 0,4.23773 -4.3518,8.03562 -15.3437,13.39048 -7.1228,3.47002 -14.1151,7.97172 -15.5384,10.0038 -1.804,2.57549 -5.0155,3.65253 -10.6016,3.55552 -4.4076,-0.0766 -9.832,0.4913 -12.0543,1.26188 -2.4887,0.86295 -5.9806,0.0941 -9.0914,-2.00149 l 0,0 z"
       id="path2894"
       style="fill:#76684f;fill-opacity:0.94117647000000004;stroke-width:4;stroke-miterlimit:4;stroke-dasharray:none;stroke:#000000;stroke-opacity:1" />
  </g>
</svg>
