<?xml version="1.0" encoding="UTF-8" standalone="no"?>
<!-- Created with Inkscape (http://www.inkscape.org/) -->

<svg
   xmlns:dc="http://purl.org/dc/elements/1.1/"
   xmlns:cc="http://creativecommons.org/ns#"
   xmlns:rdf="http://www.w3.org/1999/02/22-rdf-syntax-ns#"
   xmlns:svg="http://www.w3.org/2000/svg"
   xmlns="http://www.w3.org/2000/svg"
   xmlns:sodipodi="http://sodipodi.sourceforge.net/DTD/sodipodi-0.dtd"
   xmlns:inkscape="http://www.inkscape.org/namespaces/inkscape"
   width="223.42336"
   height="493.72647"
   id="svg3003"
   version="1.1"
   inkscape:version="0.47pre4 r22446"
   sodipodi:docname="south.svg">
  <defs
     id="defs3005">
    <inkscape:perspective
       sodipodi:type="inkscape:persp3d"
       inkscape:vp_x="0 : 526.18109 : 1"
       inkscape:vp_y="0 : 1000 : 0"
       inkscape:vp_z="744.09448 : 526.18109 : 1"
       inkscape:persp3d-origin="372.04724 : 350.78739 : 1"
       id="perspective3011" />
    <inkscape:perspective
       id="perspective2998"
       inkscape:persp3d-origin="0.5 : 0.33333333 : 1"
       inkscape:vp_z="1 : 0.5 : 1"
       inkscape:vp_y="0 : 1000 : 0"
       inkscape:vp_x="0 : 0.5 : 1"
       sodipodi:type="inkscape:persp3d" />
  </defs>
  <sodipodi:namedview
     id="base"
     pagecolor="#ffffff"
     bordercolor="#666666"
     borderopacity="1.0"
     inkscape:pageopacity="0.0"
     inkscape:pageshadow="2"
     inkscape:zoom="0.35"
     inkscape:cx="-230.43118"
     inkscape:cy="244.00609"
     inkscape:document-units="px"
     inkscape:current-layer="layer1"
     showgrid="false"
     inkscape:window-width="1029"
     inkscape:window-height="627"
     inkscape:window-x="327"
     inkscape:window-y="41"
     inkscape:window-maximized="0" />
  <metadata
     id="metadata3008">
    <rdf:RDF>
      <cc:Work
         rdf:about="">
        <dc:format>image/svg+xml</dc:format>
        <dc:type
           rdf:resource="http://purl.org/dc/dcmitype/StillImage" />
        <dc:title />
      </cc:Work>
    </rdf:RDF>
  </metadata>
  <g
     inkscape:label="Layer 1"
     inkscape:groupmode="layer"
     id="layer1"
     transform="translate(-96.85975,-511.21322)">
    <path
       d="m 216.4768,1003.4604 c -6.5206,-0.5873 -8.5863,-1.6203 -8.5863,-4.29368 0,-1.9362 -0.9887,-4.5091 -2.1972,-5.7175 -1.5826,-1.5827 -0.17,-3.8146 5.0507,-7.9802 5.916,-4.7204 7.2479,-7.1264 7.248,-13.09324 0,-7.0699 -0.2815,-7.3479 -8.5656,-8.4591 -4.9297,-0.6612 -9.9087,-2.8074 -11.7296,-5.05609 -1.7401,-2.14896 -4.9314,-4.49815 -7.0917,-5.22041 -2.1603,-0.72225 -6.2007,-4.50558 -8.9786,-8.40739 -6.2553,-8.78611 -18.8331,-21.87403 -29.9904,-31.20683 -4.6494,-3.88909 -9.7399,-9.98313 -11.3122,-13.54233 -2.0096,-4.54908 -4.8065,-6.97595 -9.416,-8.17039 -11.3733,-2.94714 -16.6079,-13.98817 -12.9686,-27.3539 1.368,-5.02394 0.3112,-6.81348 -9.8163,-16.62249 -13.693001,-13.26241 -14.576001,-18.51722 -4.4143,-26.26798 13.5439,-10.33039 17.8204,-18.13824 18.0824,-33.01419 0.2093,-11.87873 0.7605,-13.64953 4.8005,-15.42186 2.5103,-1.10123 5.0336,-3.48145 5.6074,-5.28938 0.5739,-1.80795 2.8384,-4.91167 5.0324,-6.89718 2.7773,-2.5134 4.0602,-6.43007 4.2234,-12.89337 0.1289,-5.10581 0.6489,-7.69871 1.1555,-5.76195 0.5911,2.25933 5.0325,4.69697 12.3926,6.80156 6.3092,1.80411 13.0434,4.66165 14.9647,6.35008 4.1772,3.67074 3.5848,4.95519 10.4841,-22.73392 2.7686,-11.11168 6.4385,-24.18119 8.1551,-29.04336 4.788,-13.56105 3.9689,-17.20547 -6.7659,-30.10467 -11.4605,-13.77114 -18.3971,-27.0587 -18.3971,-35.24074 0,-4.04371 -1.2934,-6.225 -4.3648,-7.36119 -3.7357,-1.38191 -3.8813,-1.80019 -1.0102,-2.90195 1.8451,-0.70801 3.3547,-3.13411 3.3547,-5.39131 0,-2.25721 1.3121,-4.10402 2.9159,-4.10402 3.8702,0 9.1906,-7.79057 7.7983,-11.41886 -0.6065,-1.58057 0.5155,-4.66188 2.4933,-6.84734 2.8714,-3.17289 3.1623,-4.92538 1.4438,-8.6971 -1.1837,-2.59794 -1.4498,-5.86002 -0.5913,-7.24907 2.6563,-4.29802 10.045,2.00108 12.3479,10.52704 1.6385,6.06606 3.5943,8.26357 9.5447,10.72431 6.5468,2.70736 10.7396,7.24095 22.2632,24.0727 0.7607,1.11116 3.4287,3.7522 5.9289,5.86896 4.343,3.67705 4.7206,3.69031 8.4697,0.29741 3.8736,-3.50554 3.8558,-3.68506 -1.3844,-13.95018 -9.9854,-19.56049 -10.6209,-21.13125 -10.6209,-26.25254 0,-2.82075 -1.7064,-8.1353 -3.792,-11.81011 -2.0856,-3.67481 -4.8607,-11.13721 -6.1669,-16.58311 -1.3061,-5.4459 -3.7142,-12.49171 -5.3512,-15.65736 -2.7576,-5.33265 -3.8454,-5.75573 -14.799,-5.75573 -7.0494,0 -12.6263,-1.01959 -13.8134,-2.52539 -1.1691,-1.48303 -1.4797,-8.7303 -0.7524,-17.5586 l 1.2384,-15.03323 20.5202,22.1043 c 31.755,34.20619 60.4302,68.44582 73.321,87.54893 6.4534,9.56333 18.6362,25.11553 27.073,34.56046 l 15.3395,17.17259 0.058,13.49275 c 0.041,9.51534 0.995,14.42934 3.2356,16.66997 3.4877,3.48764 3.9083,2.19222 -8.064,24.8333 l -5.5783,10.54931 4.37,18.61369 4.37,18.6137 -3.6066,41.37205 -3.6066,41.37205 -14.2515,6.5846 c -18.3987,8.50074 -24.5829,10.00675 -28.3279,6.89864 -4.0801,-3.3862 -11.4644,-1.15863 -18.7643,5.66051 -4.933,4.60809 -6.3866,8.00327 -7.5774,17.69837 -2.0105,16.36761 -4.0951,21.12296 -12.1814,27.78841 -8.497,7.00395 -8.6403,9.46061 -0.8863,15.19336 11.535,8.52826 12.8658,12.58662 13.4358,40.97461 l 0.5226,26.02488 -6.4674,-0.353 c -3.5571,-0.1941 -10.3313,-0.7009 -15.0537,-1.1263 z"
       id="path2892"
       style="fill:#76684f;fill-opacity:0.94117647000000004;stroke:#000000;stroke-opacity:1;stroke-width:4;stroke-miterlimit:4;stroke-dasharray:none" />
  </g>
</svg>
