<?xml version="1.0" encoding="UTF-8" standalone="no"?>
<!-- Created with Inkscape (http://www.inkscape.org/) -->

<svg
   xmlns:dc="http://purl.org/dc/elements/1.1/"
   xmlns:cc="http://creativecommons.org/ns#"
   xmlns:rdf="http://www.w3.org/1999/02/22-rdf-syntax-ns#"
   xmlns:svg="http://www.w3.org/2000/svg"
   xmlns="http://www.w3.org/2000/svg"
   xmlns:sodipodi="http://sodipodi.sourceforge.net/DTD/sodipodi-0.dtd"
   xmlns:inkscape="http://www.inkscape.org/namespaces/inkscape"
   width="456.56299"
   height="499.99963"
   id="svg3700"
   version="1.1"
   inkscape:version="0.47pre4 r22446"
   sodipodi:docname="chikhwawa.svg"
   onload="RunScript(evt)">
  <defs
     id="defs3702">
    <inkscape:perspective
       sodipodi:type="inkscape:persp3d"
       inkscape:vp_x="0 : 526.18109 : 1"
       inkscape:vp_y="0 : 1000 : 0"
       inkscape:vp_z="744.09448 : 526.18109 : 1"
       inkscape:persp3d-origin="372.04724 : 350.78739 : 1"
       id="perspective3708" />
    <inkscape:perspective
       id="perspective3695"
       inkscape:persp3d-origin="0.5 : 0.33333333 : 1"
       inkscape:vp_z="1 : 0.5 : 1"
       inkscape:vp_y="0 : 1000 : 0"
       inkscape:vp_x="0 : 0.5 : 1"
       sodipodi:type="inkscape:persp3d" />
  </defs>
  <sodipodi:namedview
     id="base"
     pagecolor="#ffffff"
     bordercolor="#666666"
     borderopacity="1.0"
     inkscape:pageopacity="0.0"
     inkscape:pageshadow="2"
     inkscape:zoom="0.35"
     inkscape:cx="588.84026"
     inkscape:cy="4.2855397"
     inkscape:document-units="px"
     inkscape:current-layer="layer1"
     showgrid="false"
     inkscape:window-width="888"
     inkscape:window-height="560"
     inkscape:window-x="0"
     inkscape:window-y="41"
     inkscape:window-maximized="0" />
  <metadata
     id="metadata3705">
    <rdf:RDF>
      <cc:Work
         rdf:about="">
        <dc:format>image/svg+xml</dc:format>
        <dc:type
           rdf:resource="http://purl.org/dc/dcmitype/StillImage" />
        <dc:title />
      </cc:Work>
    </rdf:RDF>
  </metadata>
  <script
     id="script2814"
     type="text/ecmascript">var g_element;
var SVGDoc;
var SVGRoot;
function RunScript(LoadEvent) {
	top.SVGsetDimension	= setDimension;
	top.SVGsetScale		= setScale;
	SVGDoc			= LoadEvent.target.ownerDocument;
	g_element		= SVGDoc.getElementById(&quot;layer1&quot;);
}

function setDimension(w,h) {
	SVGDoc.documentElement.setAttribute(&quot;width&quot;, w);
	SVGDoc.documentElement.setAttribute(&quot;height&quot;, h);
}

function setScale(sw, sh) {
	g_element.setAttribute(&quot;transform&quot;, &quot;scale(&quot; + sw + &quot; &quot; + sh +&quot;)&quot;);
}
</script>
  <g
     inkscape:label="Layer 1"
     inkscape:groupmode="layer"
     id="layer1"
     transform="translate(-6.7185021,-36.648083)">
    <path
       style="fill:#76684f;fill-opacity:0.94117647;stroke:#000000;stroke-width:4.69660473;stroke-opacity:1;display:inline"
       d="m 343.95295,525.54641 c 0,-4.81417 -10.56736,-20.28985 -23.48302,-34.39047 -12.91566,-14.10061 -23.48302,-28.21588 -23.48302,-31.36721 0,-3.15138 -12.07699,-11.89101 -26.83772,-19.42135 -14.76077,-7.5304 -26.83776,-16.40322 -26.83776,-19.71748 0,-3.3142 -9.90091,-12.14495 -22.00209,-19.62387 -12.82121,-7.92397 -25.57024,-23.46569 -30.55329,-37.246 -10.06144,-27.82447 -36.75891,-50.89193 -58.90044,-50.89193 -31.13915,0 -44.05439,-39.74445 -32.72618,-100.70911 3.69928,-19.90824 1.10779,-27.69089 -16.75626,-50.32078 C 70.75039,147.13464 49.36989,127.98818 34.861,119.31054 4.6428599,101.23735 1.6462399,86.373487 22.35695,57.287936 c 16.87048,-23.69235 24.14191,-23.98749 76.355,-3.09896 32.79925,13.12175 59.64697,17.46747 134.7151,21.80567 76.8883,4.443371 93.64405,7.228271 93.15044,15.482081 -0.33111,5.53528 -2.63118,22.895953 -5.11136,38.579273 -3.63118,22.96137 -2.53392,28.51511 5.63395,28.51511 5.57891,0 10.14344,2.88517 10.14344,6.41147 0,13.74715 75.71143,122.09636 105.57737,151.08982 19.40661,18.83967 21.00378,23.16919 15.05689,40.81527 -3.65889,10.85705 -9.71229,32.35585 -13.45196,47.77518 -3.73972,15.41933 -17.30864,40.61379 -30.15314,55.98766 -12.84451,15.37386 -23.35368,31.9766 -23.35368,36.89488 0,9.2154 -30.84091,36.75403 -41.16142,36.75403 -3.19252,0 -5.80463,-3.93885 -5.80463,-8.75301 z"
       id="path3135" />
  </g>
</svg>
