<?xml version="1.0" encoding="UTF-8" standalone="no"?>
<!-- Created with Inkscape (http://www.inkscape.org/) -->

<svg
   xmlns:dc="http://purl.org/dc/elements/1.1/"
   xmlns:cc="http://creativecommons.org/ns#"
   xmlns:rdf="http://www.w3.org/1999/02/22-rdf-syntax-ns#"
   xmlns:svg="http://www.w3.org/2000/svg"
   xmlns="http://www.w3.org/2000/svg"
   xmlns:sodipodi="http://sodipodi.sourceforge.net/DTD/sodipodi-0.dtd"
   xmlns:inkscape="http://www.inkscape.org/namespaces/inkscape"
   width="491.39606"
   height="312.69958"
   id="svg2959"
   version="1.1"
   inkscape:version="0.47pre4 r22446"
   sodipodi:docname="dedza.svg"
   onload="RunScript(evt)">
  <defs
     id="defs2961">
    <inkscape:perspective
       sodipodi:type="inkscape:persp3d"
       inkscape:vp_x="0 : 526.18109 : 1"
       inkscape:vp_y="0 : 1000 : 0"
       inkscape:vp_z="744.09448 : 526.18109 : 1"
       inkscape:persp3d-origin="372.04724 : 350.78739 : 1"
       id="perspective2967" />
    <inkscape:perspective
       id="perspective2954"
       inkscape:persp3d-origin="0.5 : 0.33333333 : 1"
       inkscape:vp_z="1 : 0.5 : 1"
       inkscape:vp_y="0 : 1000 : 0"
       inkscape:vp_x="0 : 0.5 : 1"
       sodipodi:type="inkscape:persp3d" />
  </defs>
  <sodipodi:namedview
     id="base"
     pagecolor="#ffffff"
     bordercolor="#666666"
     borderopacity="1.0"
     inkscape:pageopacity="0.0"
     inkscape:pageshadow="2"
     inkscape:zoom="0.35"
     inkscape:cx="157.28974"
     inkscape:cy="-259.68379"
     inkscape:document-units="px"
     inkscape:current-layer="layer1"
     showgrid="false"
     inkscape:window-width="1050"
     inkscape:window-height="612"
     inkscape:window-x="0"
     inkscape:window-y="41"
     inkscape:window-maximized="0" />
  <metadata
     id="metadata2964">
    <rdf:RDF>
      <cc:Work
         rdf:about="">
        <dc:format>image/svg+xml</dc:format>
        <dc:type
           rdf:resource="http://purl.org/dc/dcmitype/StillImage" />
        <dc:title />
      </cc:Work>
    </rdf:RDF>
  </metadata>
  <script
     id="script2814"
     type="text/ecmascript">var g_element;
var SVGDoc;
var SVGRoot;
function RunScript(LoadEvent) {
	top.SVGsetDimension	= setDimension;
	top.SVGsetScale		= setScale;
	SVGDoc			= LoadEvent.target.ownerDocument;
	g_element		= SVGDoc.getElementById(&quot;layer1&quot;);
}

function setDimension(w,h) {
	SVGDoc.documentElement.setAttribute(&quot;width&quot;, w);
	SVGDoc.documentElement.setAttribute(&quot;height&quot;, h);
}

function setScale(sw, sh) {
	g_element.setAttribute(&quot;transform&quot;, &quot;scale(&quot; + sw + &quot; &quot; + sh +&quot;)&quot;);
}
</script>
  <g
     inkscape:label="Layer 1"
     inkscape:groupmode="layer"
     id="layer1"
     transform="translate(-13.177553,-77.440959)">
    <path
       style="fill:#76684f;fill-opacity:0.94117647;stroke:#000000;stroke-width:4.14717865;stroke-opacity:1;display:inline"
       d="m 34.505908,375.63576 c -10.590124,-6.78209 -19.254766,-17.0802 -19.254766,-22.88468 0,-14.51239 48.164857,-52.76256 72.17443,-57.31735 29.446068,-5.58614 40.719318,-13.0802 47.066728,-31.28839 4.06268,-11.65415 12.14405,-18.45586 27.67333,-23.29121 16.77169,-5.22221 27.23416,-14.83646 44.44756,-40.84391 36.76844,-55.55295 65.55934,-95.16803 78.65701,-108.228811 l 12.30156,-12.266861 32.1325,42.393272 c 17.67287,23.31627 38.79765,51.41658 46.94387,62.44515 12.13343,16.42647 17.65479,19.46279 30.53809,16.79358 12.97249,-2.6877 18.58947,0.49501 32.07336,18.17327 8.99067,11.78736 23.90851,25.34194 33.15074,30.12132 9.62503,4.97728 16.8041,13.5611 16.8041,20.09225 0,6.27142 4.35969,13.84236 9.68832,16.82441 8.01932,4.48785 3.78942,9.87558 -24.55455,31.27547 -27.40767,20.69298 -38.79383,25.73429 -57.04234,25.25579 -12.53968,-0.32886 -26.84106,-3.95206 -31.78076,-8.05165 -20.62832,-17.11998 -173.56205,0.0221 -199.71466,22.38334 -7.66458,6.55395 -18.08725,7.67697 -42.70457,4.6012 -28.50874,-3.56193 -35.7977,-2.17447 -58.513537,11.13789 -14.271459,8.36364 -27.046929,15.1617 -28.389922,15.10679 -1.34294,-0.0548 -11.106394,-5.64879 -21.696493,-12.43087 z"
       id="path3149" />
  </g>
</svg>
