<?xml version="1.0" encoding="UTF-8" standalone="no"?>
<!-- Created with Inkscape (http://www.inkscape.org/) -->

<svg
   xmlns:dc="http://purl.org/dc/elements/1.1/"
   xmlns:cc="http://creativecommons.org/ns#"
   xmlns:rdf="http://www.w3.org/1999/02/22-rdf-syntax-ns#"
   xmlns:svg="http://www.w3.org/2000/svg"
   xmlns="http://www.w3.org/2000/svg"
   xmlns:sodipodi="http://sodipodi.sourceforge.net/DTD/sodipodi-0.dtd"
   xmlns:inkscape="http://www.inkscape.org/namespaces/inkscape"
   width="500.0462"
   height="324.59268"
   id="svg3210"
   version="1.1"
   inkscape:version="0.47pre4 r22446"
   sodipodi:docname="likoma.svg"
   onload="RunScript(evt)">
  <defs
     id="defs3212">
    <inkscape:perspective
       sodipodi:type="inkscape:persp3d"
       inkscape:vp_x="0 : 526.18109 : 1"
       inkscape:vp_y="0 : 1000 : 0"
       inkscape:vp_z="744.09448 : 526.18109 : 1"
       inkscape:persp3d-origin="372.04724 : 350.78739 : 1"
       id="perspective3218" />
    <inkscape:perspective
       id="perspective3203"
       inkscape:persp3d-origin="0.5 : 0.33333333 : 1"
       inkscape:vp_z="1 : 0.5 : 1"
       inkscape:vp_y="0 : 1000 : 0"
       inkscape:vp_x="0 : 0.5 : 1"
       sodipodi:type="inkscape:persp3d" />
  </defs>
  <sodipodi:namedview
     id="base"
     pagecolor="#ffffff"
     bordercolor="#666666"
     borderopacity="1.0"
     inkscape:pageopacity="0.0"
     inkscape:pageshadow="2"
     inkscape:zoom="0.98994949"
     inkscape:cx="321.56846"
     inkscape:cy="120.62771"
     inkscape:document-units="px"
     inkscape:current-layer="g3191"
     showgrid="false"
     inkscape:window-width="1063"
     inkscape:window-height="579"
     inkscape:window-x="23"
     inkscape:window-y="75"
     inkscape:window-maximized="0" />
  <metadata
     id="metadata3215">
    <rdf:RDF>
      <cc:Work
         rdf:about="">
        <dc:format>image/svg+xml</dc:format>
        <dc:type
           rdf:resource="http://purl.org/dc/dcmitype/StillImage" />
        <dc:title />
      </cc:Work>
    </rdf:RDF>
  </metadata>
  <script
     id="script2816"
     type="text/ecmascript">var g_element;
var SVGDoc;
var SVGRoot;
function RunScript(LoadEvent) {
	top.SVGsetDimension	= setDimension;
	top.SVGsetScale		= setScale;
	SVGDoc			= LoadEvent.target.ownerDocument;
	g_element		= SVGDoc.getElementById(&quot;layer1&quot;);
}

function setDimension(w,h) {
	SVGDoc.documentElement.setAttribute(&quot;width&quot;, w);
	SVGDoc.documentElement.setAttribute(&quot;height&quot;, h);
}

function setScale(sw, sh) {
	g_element.setAttribute(&quot;transform&quot;, &quot;scale(&quot; + sw + &quot; &quot; + sh +&quot;)&quot;);
}
</script>
  <g
     inkscape:label="Layer 1"
     inkscape:groupmode="layer"
     id="layer1"
     transform="translate(-14.290049,-158.04776)">
    <g
       id="g3191"
       transform="matrix(24.33344,0,0,24.33344,-12546.335,-10568.831)">
      <path
         id="path3187"
         d="m 517.18403,448.88751 c -0.14929,-0.14928 -0.27145,-0.7789 -0.27145,-1.39915 0,-0.62023 -0.14706,-1.54464 -0.32691,-2.05428 -0.17981,-0.5096 -0.32693,-1.46119 -0.32693,-2.11461 0,-1.03294 0.0865,-1.27456 0.66258,-1.85061 0.55372,-0.55373 0.77577,-0.63993 1.35167,-0.52474 0.81754,0.16344 1.69081,0.92165 1.69081,1.46794 0,0.214 0.25252,0.6232 0.56115,0.9094 0.43177,0.40036 0.54484,0.6902 0.49038,1.25703 -0.066,0.68745 -0.40382,1.02087 -1.37845,1.36068 -0.12,0.0418 -0.26698,0.75436 -0.32691,1.58349 l -0.10888,1.50749 -0.87275,0.0643 c -0.4901,0.0361 -0.99178,-0.0546 -1.14421,-0.20705 l 0,0 z"
         style="fill:#76684f;fill-opacity:0.94117647;stroke:#000000;stroke-width:0.14186449;stroke-linejoin:round;stroke-miterlimit:4;stroke-opacity:1;stroke-dasharray:none" />
      <path
         id="path3189"
         d="m 530.49369,453.84443 c -0.38184,-0.17243 -0.84768,-0.61029 -1.03524,-0.97298 -0.43693,-0.84493 -0.45763,-3.52847 -0.0335,-4.34855 0.16916,-0.32704 0.45958,-1.17708 0.64549,-1.88894 0.2104,-0.80575 0.52625,-1.44046 0.83671,-1.68139 0.40389,-0.31345 0.44088,-0.42461 0.19455,-0.5846 -0.16726,-0.10876 -0.24643,-0.34809 -0.17584,-0.53207 0.1028,-0.26829 0.48671,-0.32656 1.93877,-0.29442 l 1.8104,0.04 0.0666,0.80075 c 0.0508,0.60885 0.29888,1.03304 1.03546,1.76961 0.79838,0.79837 0.95146,1.07926 0.87015,1.59661 -0.0542,0.34526 -0.1512,1.38803 -0.21544,2.31727 -0.15447,2.23448 -0.5081,3.0354 -1.56657,3.54757 -1.09142,0.52812 -3.43908,0.65221 -4.37157,0.23104 z m 2.19013,-9.38983 c -0.0687,-0.17911 -0.21435,-0.27042 -0.32364,-0.2029 -0.22853,0.14119 -0.045,0.52857 0.25037,0.52857 0.1091,0 0.14205,-0.14654 0.0733,-0.32567 z"
         style="fill:#76684f;fill-opacity:0.94117647;stroke:#000000;stroke-width:0.14186449;stroke-linejoin:round;stroke-miterlimit:4;stroke-opacity:1;stroke-dasharray:none" />
    </g>
  </g>
</svg>
