<?xml version="1.0" encoding="UTF-8" standalone="no"?>
<!-- Created with Inkscape (http://www.inkscape.org/) -->

<svg
   xmlns:dc="http://purl.org/dc/elements/1.1/"
   xmlns:cc="http://creativecommons.org/ns#"
   xmlns:rdf="http://www.w3.org/1999/02/22-rdf-syntax-ns#"
   xmlns:svg="http://www.w3.org/2000/svg"
   xmlns="http://www.w3.org/2000/svg"
   xmlns:sodipodi="http://sodipodi.sourceforge.net/DTD/sodipodi-0.dtd"
   xmlns:inkscape="http://www.inkscape.org/namespaces/inkscape"
   width="450.00031"
   height="504.94299"
   id="svg3118"
   version="1.1"
   inkscape:version="0.47pre4 r22446"
   sodipodi:docname="mchinji.svg"
   onload="RunScript(evt)">
  <defs
     id="defs3120">
    <inkscape:perspective
       sodipodi:type="inkscape:persp3d"
       inkscape:vp_x="0 : 526.18109 : 1"
       inkscape:vp_y="0 : 1000 : 0"
       inkscape:vp_z="744.09448 : 526.18109 : 1"
       inkscape:persp3d-origin="372.04724 : 350.78739 : 1"
       id="perspective3126" />
    <inkscape:perspective
       id="perspective3113"
       inkscape:persp3d-origin="0.5 : 0.33333333 : 1"
       inkscape:vp_z="1 : 0.5 : 1"
       inkscape:vp_y="0 : 1000 : 0"
       inkscape:vp_x="0 : 0.5 : 1"
       sodipodi:type="inkscape:persp3d" />
  </defs>
  <sodipodi:namedview
     id="base"
     pagecolor="#ffffff"
     bordercolor="#666666"
     borderopacity="1.0"
     inkscape:pageopacity="0.0"
     inkscape:pageshadow="2"
     inkscape:zoom="0.71238679"
     inkscape:cx="-20.322902"
     inkscape:cy="229.96171"
     inkscape:document-units="px"
     inkscape:current-layer="layer1"
     showgrid="false"
     inkscape:window-width="1122"
     inkscape:window-height="600"
     inkscape:window-x="0"
     inkscape:window-y="41"
     inkscape:window-maximized="0" />
  <metadata
     id="metadata3123">
    <rdf:RDF>
      <cc:Work
         rdf:about="">
        <dc:format>image/svg+xml</dc:format>
        <dc:type
           rdf:resource="http://purl.org/dc/dcmitype/StillImage" />
        <dc:title />
      </cc:Work>
    </rdf:RDF>
  </metadata>
  <script
     id="script2814"
     type="text/ecmascript">var g_element;
var SVGDoc;
var SVGRoot;
function RunScript(LoadEvent) {
	top.SVGsetDimension	= setDimension;
	top.SVGsetScale		= setScale;
	SVGDoc			= LoadEvent.target.ownerDocument;
	g_element		= SVGDoc.getElementById(&quot;layer1&quot;);
}

function setDimension(w,h) {
	SVGDoc.documentElement.setAttribute(&quot;width&quot;, w);
	SVGDoc.documentElement.setAttribute(&quot;height&quot;, h);
}

function setScale(sw, sh) {
	g_element.setAttribute(&quot;transform&quot;, &quot;scale(&quot; + sw + &quot; &quot; + sh +&quot;)&quot;);
}
</script>
  <g
     inkscape:label="Layer 1"
     inkscape:groupmode="layer"
     id="layer1"
     transform="translate(-13.837863,-35.641341)">
    <path
       style="fill:#76684f;fill-opacity:0.94117647;stroke:#000000;stroke-width:6.35564375;stroke-opacity:1;display:inline"
       d="m 413.01678,517.50019 c -18.7133,-11.32887 -40.39533,-29.69388 -48.18213,-40.81117 -21.59286,-30.82811 -53.29373,-25.44521 -94.84361,16.10469 -41.94891,41.9489 -49.44305,44.59342 -41.96772,14.80942 3.73355,-14.87578 -0.86285,-28.63447 -14.90488,-44.61599 -11.16667,-12.70906 -34.15624,-40.21146 -51.0878,-61.1165 -16.93163,-20.90499 -42.57698,-45.18037 -56.98959,-53.94525 -22.859736,-13.90183 -24.435356,-17.40467 -12.342866,-27.44048 18.944286,-15.72241 17.617606,-23.72772 -9.91435,-59.82397 -15.35155,-20.12693 -31.43756,-31.17246 -45.39747,-31.17246 -32.3284296,0 -26.30563,-11.16521 18.98239,-35.1905 22.33196,-11.84705 42.874294,-28.69471 45.649676,-37.43913 2.77538,-8.74447 19.3324,-31.73061 36.79339,-51.08024 17.46099,-19.349687 37.77629,-42.331317 45.14521,-51.070327 10.22718,-12.12867 27.36537,-15.88912 72.41474,-15.88912 56.4774,0 59.01667,0.95127 59.01667,22.10767 0,39.684757 18.3073,72.362567 69.86982,124.714637 l 50.71104,51.48764 -14.29333,35.72253 c -7.86137,19.64745 -17.00205,59.80744 -20.31264,89.24449 -5.07733,45.14617 -3.24074,57.07412 11.73582,76.22069 21.31244,27.24652 47.56119,77.10685 47.56119,90.34401 0,14.0508 -9.78476,11.75871 -47.64356,-11.16064 z"
       id="path3139" />
  </g>
</svg>
