<?xml version="1.0" encoding="UTF-8" standalone="no"?>
<!-- Created with Inkscape (http://www.inkscape.org/) -->

<svg
   xmlns:dc="http://purl.org/dc/elements/1.1/"
   xmlns:cc="http://creativecommons.org/ns#"
   xmlns:rdf="http://www.w3.org/1999/02/22-rdf-syntax-ns#"
   xmlns:svg="http://www.w3.org/2000/svg"
   xmlns="http://www.w3.org/2000/svg"
   xmlns:sodipodi="http://sodipodi.sourceforge.net/DTD/sodipodi-0.dtd"
   xmlns:inkscape="http://www.inkscape.org/namespaces/inkscape"
   width="485.29639"
   height="496.47891"
   id="svg3971"
   version="1.1"
   inkscape:version="0.47pre4 r22446"
   sodipodi:docname="mwanza.svg"
   onload="RunScript(evt)">
  <defs
     id="defs3973">
    <inkscape:perspective
       sodipodi:type="inkscape:persp3d"
       inkscape:vp_x="0 : 526.18109 : 1"
       inkscape:vp_y="0 : 1000 : 0"
       inkscape:vp_z="744.09448 : 526.18109 : 1"
       inkscape:persp3d-origin="372.04724 : 350.78739 : 1"
       id="perspective3979" />
    <inkscape:perspective
       id="perspective3966"
       inkscape:persp3d-origin="0.5 : 0.33333333 : 1"
       inkscape:vp_z="1 : 0.5 : 1"
       inkscape:vp_y="0 : 1000 : 0"
       inkscape:vp_x="0 : 0.5 : 1"
       sodipodi:type="inkscape:persp3d" />
  </defs>
  <sodipodi:namedview
     id="base"
     pagecolor="#ffffff"
     bordercolor="#666666"
     borderopacity="1.0"
     inkscape:pageopacity="0.0"
     inkscape:pageshadow="2"
     inkscape:zoom="0.35"
     inkscape:cx="-145.86496"
     inkscape:cy="-26.046215"
     inkscape:document-units="px"
     inkscape:current-layer="layer1"
     showgrid="false"
     inkscape:window-width="1039"
     inkscape:window-height="646"
     inkscape:window-x="0"
     inkscape:window-y="41"
     inkscape:window-maximized="0" />
  <metadata
     id="metadata3976">
    <rdf:RDF>
      <cc:Work
         rdf:about="">
        <dc:format>image/svg+xml</dc:format>
        <dc:type
           rdf:resource="http://purl.org/dc/dcmitype/StillImage" />
        <dc:title />
      </cc:Work>
    </rdf:RDF>
  </metadata>
  <script
     id="script2814"
     type="text/ecmascript">var g_element;
var SVGDoc;
var SVGRoot;
function RunScript(LoadEvent) {
	top.SVGsetDimension	= setDimension;
	top.SVGsetScale		= setScale;
	SVGDoc			= LoadEvent.target.ownerDocument;
	g_element		= SVGDoc.getElementById(&quot;layer1&quot;);
}

function setDimension(w,h) {
	SVGDoc.documentElement.setAttribute(&quot;width&quot;, w);
	SVGDoc.documentElement.setAttribute(&quot;height&quot;, h);
}

function setScale(sw, sh) {
	g_element.setAttribute(&quot;transform&quot;, &quot;scale(&quot; + sw + &quot; &quot; + sh +&quot;)&quot;);
}
</script>
  <g
     inkscape:label="Layer 1"
     inkscape:groupmode="layer"
     id="layer1"
     transform="translate(-15.208947,-9.8370168)">
    <path
       style="fill:#76684f;fill-opacity:0.94117647;stroke:#000000;stroke-width:4;stroke-miterlimit:4;stroke-opacity:1;stroke-dasharray:none;display:inline"
       d="m 69.838713,484.21849 c -24.72111,-9.82814 -48.0479,-20.96991 -51.83745,-24.75946 -3.78948,-3.78948 6.38446,-26.94917 22.60887,-51.46587 26.54463,-40.11171 29.29055,-53.04142 27.41897,-129.10852 -1.88804,-76.73447 -0.0451,-85.17739 19.93884,-91.52124 12.110347,-3.84363 30.129467,-19.91711 40.042527,-35.71886 9.91305,-15.80168 33.9576,-46.87431 53.43234,-69.05023 19.47474,-22.17591 35.40856,-48.08204 35.40856,-57.5692 0,-12.44509 6.73267,-15.63307 24.17339,-11.44627 13.29536,3.19166 42.9739,9.21431 65.95233,13.38365 33.31159,6.04423 44.19879,14.06826 53.71859,39.59152 11.93331,31.9942 11.9761,32.00774 81.77365,25.85266 58.07376,-5.12123 65.91518,-3.97562 46.56318,6.80275 -29.33229,16.337 -62.56544,58.61735 -73.51934,93.53361 -4.63352,14.7697 -27.75018,44.51939 -51.37035,66.11035 -46.77075,42.75265 -64.51027,97.14432 -63.41233,194.42996 l 0.57607,51.0326 -93.26016,-1.11395 c -59.38956,-0.7092 -109.584437,-7.60393 -138.207607,-18.9835 z"
       id="path3153" />
  </g>
</svg>
