<?xml version="1.0" encoding="UTF-8" standalone="no"?>
<!-- Created with Inkscape (http://www.inkscape.org/) -->

<svg
   xmlns:dc="http://purl.org/dc/elements/1.1/"
   xmlns:cc="http://creativecommons.org/ns#"
   xmlns:rdf="http://www.w3.org/1999/02/22-rdf-syntax-ns#"
   xmlns:svg="http://www.w3.org/2000/svg"
   xmlns="http://www.w3.org/2000/svg"
   xmlns:sodipodi="http://sodipodi.sourceforge.net/DTD/sodipodi-0.dtd"
   xmlns:inkscape="http://www.inkscape.org/namespaces/inkscape"
   width="236.79785"
   height="500"
   id="svg3435"
   version="1.1"
   inkscape:version="0.47pre4 r22446"
   sodipodi:docname="mzimba.svg"
   onload="RunScript(evt)">
  <defs
     id="defs3437">
    <inkscape:perspective
       sodipodi:type="inkscape:persp3d"
       inkscape:vp_x="0 : 526.18109 : 1"
       inkscape:vp_y="0 : 1000 : 0"
       inkscape:vp_z="744.09448 : 526.18109 : 1"
       inkscape:persp3d-origin="372.04724 : 350.78739 : 1"
       id="perspective3443" />
    <inkscape:perspective
       id="perspective3430"
       inkscape:persp3d-origin="0.5 : 0.33333333 : 1"
       inkscape:vp_z="1 : 0.5 : 1"
       inkscape:vp_y="0 : 1000 : 0"
       inkscape:vp_x="0 : 0.5 : 1"
       sodipodi:type="inkscape:persp3d" />
  </defs>
  <sodipodi:namedview
     id="base"
     pagecolor="#ffffff"
     bordercolor="#666666"
     borderopacity="1.0"
     inkscape:pageopacity="0.0"
     inkscape:pageshadow="2"
     inkscape:zoom="0.35"
     inkscape:cx="71.881432"
     inkscape:cy="9.1428332"
     inkscape:document-units="px"
     inkscape:current-layer="layer1"
     showgrid="false"
     inkscape:window-width="963"
     inkscape:window-height="578"
     inkscape:window-x="0"
     inkscape:window-y="41"
     inkscape:window-maximized="0" />
  <metadata
     id="metadata3440">
    <rdf:RDF>
      <cc:Work
         rdf:about="">
        <dc:format>image/svg+xml</dc:format>
        <dc:type
           rdf:resource="http://purl.org/dc/dcmitype/StillImage" />
        <dc:title />
      </cc:Work>
    </rdf:RDF>
  </metadata>
  <script
     id="script2814"
     type="text/ecmascript">var g_element;
var SVGDoc;
var SVGRoot;
function RunScript(LoadEvent) {
	top.SVGsetDimension	= setDimension;
	top.SVGsetScale		= setScale;
	SVGDoc			= LoadEvent.target.ownerDocument;
	g_element		= SVGDoc.getElementById(&quot;layer1&quot;);
}

function setDimension(w,h) {
	SVGDoc.documentElement.setAttribute(&quot;width&quot;, w);
	SVGDoc.documentElement.setAttribute(&quot;height&quot;, h);
}

function setScale(sw, sh) {
	g_element.setAttribute(&quot;transform&quot;, &quot;scale(&quot; + sw + &quot; &quot; + sh +&quot;)&quot;);
}
</script>
  <g
     inkscape:label="Layer 1"
     inkscape:groupmode="layer"
     id="layer1"
     transform="translate(-129.02955,-41.505039)">
    <path
       style="fill:#76684f;fill-opacity:0.94117647;stroke:#000000;stroke-width:2.41210079;stroke-opacity:1;display:inline"
       d="m 231.5434,527.95235 c -15.49884,-12.9948 -17.2677,-17.93857 -10.37013,-28.98332 3.40241,-5.44814 3.40241,-8.24176 0,-13.6899 -5.83263,-9.33949 -5.4087,-12.69626 2.61696,-20.72192 10.77227,-10.77225 8.8677,-24.26711 -4.98478,-35.32004 -9.9214,-7.91632 -15.21095,-9.4761 -32.1349,-9.4761 -16.72068,0 -21.56705,-1.3928 -27.75098,-7.97528 -4.31245,-4.59039 -7.49237,-12.43689 -7.49237,-18.48752 0,-5.78173 -3.10128,-14.45488 -6.89171,-19.27365 -8.54501,-10.86319 -8.53649,-11.67208 0.39865,-37.93434 6.04429,-17.76534 7.27569,-29.46533 7.20429,-68.45093 -0.0895,-48.85969 -2.51418,-59.44198 -14.491,-63.24329 -9.88026,-3.13587 -9.88296,-29.21326 -0.005,-35.38298 3.79045,-2.36717 6.89173,-6.46788 6.89173,-9.11273 0,-2.64482 6.97785,-18.03745 15.50636,-34.20583 8.52849,-16.16836 15.50636,-32.59892 15.50636,-36.51231 0,-4.25287 2.23896,-7.11526 5.56552,-7.11526 3.06102,0 10.57554,-5.46971 16.69892,-12.15487 l 11.13342,-12.154863 19.04479,4.960553 c 10.47466,2.72828 22.21718,6.94172 26.09451,9.36315 5.74826,3.58984 8.06392,3.56084 12.54377,-0.15703 3.02176,-2.50783 5.08596,-7.06644 4.58714,-10.130243 -0.75129,-4.61445 3.23318,-5.73176 23.21404,-6.50961 19.18259,-0.74679 25.30843,-2.35402 29.92078,-7.85028 5.74886,-6.85061 5.9076,-6.81655 18.09076,3.8804 13.98965,12.283093 14.33755,14.146443 6.79098,36.374333 -7.1603,21.09018 -2.30624,60.44407 8.72281,70.71916 8.90038,8.29198 8.89399,10.48275 -0.047,16.06647 -5.80906,3.62782 -8.16161,3.64278 -12.45546,0.0791 -4.41767,-3.66635 -6.36886,-3.06564 -11.7905,3.62978 -3.57321,4.41274 -6.49675,10.17732 -6.49675,12.8102 0,3.38042 -4.58304,4.78704 -15.59703,4.78704 -13.92923,0 -17.28313,1.68608 -31.36479,15.76775 -15.34344,15.34343 -15.70391,16.19345 -13.39538,31.58782 2.77765,18.52266 9.73082,30.47185 19.16737,32.93957 9.65924,2.52596 8.29674,12.31841 -2.27309,16.33707 -7.64137,2.90523 -8.65655,4.84827 -6.70668,12.83667 1.26373,5.17728 2.28515,12.46672 2.26989,16.19877 -0.0145,3.73205 1.52432,7.7448 3.42132,8.91723 2.14009,1.32265 1.13501,6.16369 -2.64829,12.75574 -5.84339,10.1815 -5.83709,11.16998 0.15148,23.72803 l 6.24883,13.10393 -9.19449,7.90877 c -5.5722,4.79302 -9.76059,12.47276 -10.63138,19.49356 -1.49939,12.08883 1.03259,14.19869 25.22425,21.01915 4.70628,1.32687 8.54576,5.81159 9.78558,11.4301 5.64099,25.56296 8.92137,31.66285 18.05704,33.57712 5.06459,1.06125 12.26075,3.61123 15.99143,5.66658 3.7307,2.05537 10.70857,4.81038 15.50638,6.12218 7.83253,2.14158 6.07589,3.61429 -17.20305,14.42286 -15.97021,7.41507 -28.32781,15.70288 -32.17996,21.58196 -5.6886,8.6819 -7.57132,9.3466 -20.83848,7.35708 -11.65216,-1.74738 -16.37696,-0.77747 -23.49729,4.82338 -4.90184,3.85579 -9.44318,6.98016 -10.09184,6.94309 -0.64869,-0.0371 -7.76964,-5.59294 -15.82432,-12.34632 l -3e-5,0 z"
       id="path3147" />
  </g>
</svg>
