<?xml version="1.0" encoding="UTF-8" standalone="no"?>
<!-- Created with Inkscape (http://www.inkscape.org/) -->

<svg
   xmlns:dc="http://purl.org/dc/elements/1.1/"
   xmlns:cc="http://creativecommons.org/ns#"
   xmlns:rdf="http://www.w3.org/1999/02/22-rdf-syntax-ns#"
   xmlns:svg="http://www.w3.org/2000/svg"
   xmlns="http://www.w3.org/2000/svg"
   xmlns:sodipodi="http://sodipodi.sourceforge.net/DTD/sodipodi-0.dtd"
   xmlns:inkscape="http://www.inkscape.org/namespaces/inkscape"
   width="231.24501"
   height="499.99915"
   id="svg3488"
   version="1.1"
   inkscape:version="0.47pre4 r22446"
   sodipodi:docname="nkhatabay.svg"
   onload="RunScript(evt)">
  <defs
     id="defs3490">
    <inkscape:perspective
       sodipodi:type="inkscape:persp3d"
       inkscape:vp_x="0 : 526.18109 : 1"
       inkscape:vp_y="0 : 1000 : 0"
       inkscape:vp_z="744.09448 : 526.18109 : 1"
       inkscape:persp3d-origin="372.04724 : 350.78739 : 1"
       id="perspective3496" />
    <inkscape:perspective
       id="perspective3483"
       inkscape:persp3d-origin="0.5 : 0.33333333 : 1"
       inkscape:vp_z="1 : 0.5 : 1"
       inkscape:vp_y="0 : 1000 : 0"
       inkscape:vp_x="0 : 0.5 : 1"
       sodipodi:type="inkscape:persp3d" />
  </defs>
  <sodipodi:namedview
     id="base"
     pagecolor="#ffffff"
     bordercolor="#666666"
     borderopacity="1.0"
     inkscape:pageopacity="0.0"
     inkscape:pageshadow="2"
     inkscape:zoom="0.35"
     inkscape:cx="46.775717"
     inkscape:cy="-12.857529"
     inkscape:document-units="px"
     inkscape:current-layer="layer1"
     showgrid="false"
     inkscape:window-width="849"
     inkscape:window-height="548"
     inkscape:window-x="0"
     inkscape:window-y="41"
     inkscape:window-maximized="0" />
  <metadata
     id="metadata3493">
    <rdf:RDF>
      <cc:Work
         rdf:about="">
        <dc:format>image/svg+xml</dc:format>
        <dc:type
           rdf:resource="http://purl.org/dc/dcmitype/StillImage" />
        <dc:title />
      </cc:Work>
    </rdf:RDF>
  </metadata>
  <script
     id="script2814"
     type="text/ecmascript">var g_element;
var SVGDoc;
var SVGRoot;
function RunScript(LoadEvent) {
	top.SVGsetDimension	= setDimension;
	top.SVGsetScale		= setScale;
	SVGDoc			= LoadEvent.target.ownerDocument;
	g_element		= SVGDoc.getElementById(&quot;layer1&quot;);
}

function setDimension(w,h) {
	SVGDoc.documentElement.setAttribute(&quot;width&quot;, w);
	SVGDoc.documentElement.setAttribute(&quot;height&quot;, h);
}

function setScale(sw, sh) {
	g_element.setAttribute(&quot;transform&quot;, &quot;scale(&quot; + sw + &quot; &quot; + sh +&quot;)&quot;);
}
</script>
  <g
     inkscape:label="Layer 1"
     inkscape:groupmode="layer"
     id="layer1"
     transform="translate(-104.37751,-19.505455)">
    <path
       style="fill:#76684f;fill-opacity:0.94117647;stroke:#000000;stroke-width:3.49911714;stroke-opacity:1;display:inline"
       d="m 182.55665,515.64005 c -4.12396,-1.5853 -14.24641,-7.5993 -22.49432,-13.3644 -8.24791,-5.7651 -19.49509,-12.9527 -24.9937,-15.9724 -9.90793,-5.4412 -17.19841,-31.97505 -8.78555,-31.97505 2.40645,0 8.27275,-2.84985 13.03624,-6.33298 8.17345,-5.97656 8.12852,-6.90438 -0.79829,-16.48619 -5.20252,-5.58424 -10.96966,-18.20496 -12.81587,-28.04599 -2.84716,-15.17668 -1.8567,-18.28502 6.52481,-20.47683 5.43483,-1.42127 11.39858,-8.62854 13.25276,-16.01619 2.84632,-11.34075 0.54688,-15.7602 -14.76858,-28.38452 -10.61888,-8.75298 -18.17158,-19.46468 -18.21637,-25.8356 -0.042,-5.98579 -2.188,-14.22261 -4.76867,-18.30409 -3.34172,-5.2851 -1.54594,-10.76979 6.2397,-19.0572 15.31833,-16.30564 41.69758,-31.84638 52.22324,-30.76613 17.11852,1.75684 21.62667,-0.34886 27.27163,-12.73815 3.98063,-8.73656 9.66498,-12.49685 18.8912,-12.49685 7.2585,0 19.37311,-2.81179 26.92134,-6.24845 12.18357,-5.54701 13.37471,-8.16529 10.61163,-23.32539 -1.71184,-9.39233 -8.46101,-21.28415 -14.99813,-26.42624 -9.13406,-7.18488 -10.96287,-11.84388 -7.8996,-20.12472 2.594,-7.01226 1.31353,-15.43204 -3.66659,-24.10939 -7.11167,-12.39139 -6.75756,-15.4155 5.00916,-42.778155 9.08714,-21.13141 18.38587,-33.49452 32.93663,-43.790779 29.20444,-20.665301 33.13744,-15.668521 29.02682,36.877649 -3.08318,39.412415 -2.22505,46.585045 8.74174,73.069855 6.68828,16.15217 13.62133,42.86418 15.40679,59.36003 1.78546,16.49582 6.88724,45.17836 11.33731,63.73894 l 8.09098,33.7465 -31.06275,28.73772 c -26.40423,24.42793 -31.47459,31.90376 -33.80914,49.84874 -1.88546,14.49327 -5.61079,22.02012 -11.88405,24.01119 -17.28588,5.4863 -33.4328,30.88254 -37.12675,58.39367 -6.56522,48.8953 -16.3681,63.3695 -37.43362,55.2714 z"
       id="path3131" />
  </g>
</svg>
