<?xml version="1.0" encoding="UTF-8" standalone="no"?>
<!-- Created with Inkscape (http://www.inkscape.org/) -->

<svg
   xmlns:dc="http://purl.org/dc/elements/1.1/"
   xmlns:cc="http://creativecommons.org/ns#"
   xmlns:rdf="http://www.w3.org/1999/02/22-rdf-syntax-ns#"
   xmlns:svg="http://www.w3.org/2000/svg"
   xmlns="http://www.w3.org/2000/svg"
   xmlns:sodipodi="http://sodipodi.sourceforge.net/DTD/sodipodi-0.dtd"
   xmlns:inkscape="http://www.inkscape.org/namespaces/inkscape"
   width="353.31699"
   height="500.00046"
   id="svg3330"
   version="1.1"
   inkscape:version="0.47pre4 r22446"
   sodipodi:docname="salima.svg"
   onload="RunScript(evt)">
  <defs
     id="defs3332">
    <inkscape:perspective
       sodipodi:type="inkscape:persp3d"
       inkscape:vp_x="0 : 526.18109 : 1"
       inkscape:vp_y="0 : 1000 : 0"
       inkscape:vp_z="744.09448 : 526.18109 : 1"
       inkscape:persp3d-origin="372.04724 : 350.78739 : 1"
       id="perspective3338" />
    <inkscape:perspective
       id="perspective3325"
       inkscape:persp3d-origin="0.5 : 0.33333333 : 1"
       inkscape:vp_z="1 : 0.5 : 1"
       inkscape:vp_y="0 : 1000 : 0"
       inkscape:vp_x="0 : 0.5 : 1"
       sodipodi:type="inkscape:persp3d" />
  </defs>
  <sodipodi:namedview
     id="base"
     pagecolor="#ffffff"
     bordercolor="#666666"
     borderopacity="1.0"
     inkscape:pageopacity="0.0"
     inkscape:pageshadow="2"
     inkscape:zoom="0.49497475"
     inkscape:cx="115.89474"
     inkscape:cy="-12.273582"
     inkscape:document-units="px"
     inkscape:current-layer="layer1"
     showgrid="false"
     inkscape:window-width="843"
     inkscape:window-height="626"
     inkscape:window-x="0"
     inkscape:window-y="41"
     inkscape:window-maximized="0" />
  <metadata
     id="metadata3335">
    <rdf:RDF>
      <cc:Work
         rdf:about="">
        <dc:format>image/svg+xml</dc:format>
        <dc:type
           rdf:resource="http://purl.org/dc/dcmitype/StillImage" />
        <dc:title />
      </cc:Work>
    </rdf:RDF>
  </metadata>
  <script
     id="script2814">var g_element;
var SVGDoc;
var SVGRoot;
function RunScript(LoadEvent) {
	top.SVGsetDimension	= setDimension;
	top.SVGsetScale		= setScale;
	SVGDoc			= LoadEvent.target.ownerDocument;
	g_element		= SVGDoc.getElementById(&quot;layer1&quot;);
}

function setDimension(w,h) {
	SVGDoc.documentElement.setAttribute(&quot;width&quot;, w);
	SVGDoc.documentElement.setAttribute(&quot;height&quot;, h);
}

function setScale(sw, sh) {
	g_element.setAttribute(&quot;transform&quot;, &quot;scale(&quot; + sw + &quot; &quot; + sh +&quot;)&quot;);
}
</script>
  <g
     inkscape:label="Layer 1"
     inkscape:groupmode="layer"
     id="layer1"
     transform="translate(-24.595266,-19.722295)">
    <path
       style="fill:#76684f;fill-opacity:0.94117647;stroke:#000000;stroke-width:6.23990297;stroke-opacity:1;display:inline"
       d="m 242.88811,451.97524 c -28.77182,-35.54517 -61.39359,-77.66452 -72.49276,-93.59855 -15.29075,-21.95148 -27.05278,-29.14153 -48.54432,-29.67473 -15.6002,-0.38687 -23.349777,-2.72703 -17.22132,-5.1999 6.12852,-2.47294 11.14272,-10.27824 11.14272,-17.34518 0,-7.067 10.02839,-16.66185 22.28537,-21.32194 22.56106,-8.57768 29.70762,-30.01718 13.37118,-40.11365 -4.90275,-3.0301 -8.97554,-12.29236 -9.0506,-20.58288 -0.26957,-29.79099 -12.89015,-39.16463 -37.58257,-27.91402 -19.470117,8.8712 -26.765807,7.37488 -50.845847,-10.42832 C 28.20763,166.76399 26.05742,161.34252 28.46197,121.53112 l 2.62606,-43.479332 65.809753,-27.604772 65.809757,-27.60477 14.41755,18.47274 c 7.92967,10.15999 25.3501,37.017412 38.71205,59.683174 21.1265,35.8367 28.14938,41.21044 53.85741,41.21044 23.07678,0 37.84926,8.44309 67.33036,38.48217 l 37.76739,38.48217 -17.68813,74.05729 c -12.11084,50.70614 -23.43857,78.08509 -35.92568,86.83137 -16.4598,11.52885 -17.67696,18.80676 -12.48617,74.6577 3.89408,41.8987 2.64422,61.88349 -3.87011,61.88349 -5.29194,0 -33.16222,-29.08238 -61.9341,-64.62755 l 0,0 z"
       id="path3167" />
  </g>
</svg>
