<?xml version="1.0" encoding="UTF-8" standalone="no"?>
<!-- Created with Inkscape (http://www.inkscape.org/) -->

<svg
   xmlns:dc="http://purl.org/dc/elements/1.1/"
   xmlns:cc="http://creativecommons.org/ns#"
   xmlns:rdf="http://www.w3.org/1999/02/22-rdf-syntax-ns#"
   xmlns:svg="http://www.w3.org/2000/svg"
   xmlns="http://www.w3.org/2000/svg"
   xmlns:sodipodi="http://sodipodi.sourceforge.net/DTD/sodipodi-0.dtd"
   xmlns:inkscape="http://www.inkscape.org/namespaces/inkscape"
   width="500.00067"
   height="302.397"
   id="svg4130"
   version="1.1"
   inkscape:version="0.47pre4 r22446"
   sodipodi:docname="zomba.svg"
   onload="RunScript(evt)">
  <defs
     id="defs4132">
    <inkscape:perspective
       sodipodi:type="inkscape:persp3d"
       inkscape:vp_x="0 : 526.18109 : 1"
       inkscape:vp_y="0 : 1000 : 0"
       inkscape:vp_z="744.09448 : 526.18109 : 1"
       inkscape:persp3d-origin="372.04724 : 350.78739 : 1"
       id="perspective4138" />
    <inkscape:perspective
       id="perspective4125"
       inkscape:persp3d-origin="0.5 : 0.33333333 : 1"
       inkscape:vp_z="1 : 0.5 : 1"
       inkscape:vp_y="0 : 1000 : 0"
       inkscape:vp_x="0 : 0.5 : 1"
       sodipodi:type="inkscape:persp3d" />
  </defs>
  <sodipodi:namedview
     id="base"
     pagecolor="#ffffff"
     bordercolor="#666666"
     borderopacity="1.0"
     inkscape:pageopacity="0.0"
     inkscape:pageshadow="2"
     inkscape:zoom="0.35"
     inkscape:cx="-138.8568"
     inkscape:cy="-105.94438"
     inkscape:document-units="px"
     inkscape:current-layer="layer1"
     showgrid="false"
     inkscape:window-width="1038"
     inkscape:window-height="595"
     inkscape:window-x="0"
     inkscape:window-y="41"
     inkscape:window-maximized="0" />
  <metadata
     id="metadata4135">
    <rdf:RDF>
      <cc:Work
         rdf:about="">
        <dc:format>image/svg+xml</dc:format>
        <dc:type
           rdf:resource="http://purl.org/dc/dcmitype/StillImage" />
        <dc:title />
      </cc:Work>
    </rdf:RDF>
  </metadata>
  <script
     id="script2814"
     type="text/ecmascript">var g_element;
var SVGDoc;
var SVGRoot;
function RunScript(LoadEvent) {
	top.SVGsetDimension	= setDimension;
	top.SVGsetScale		= setScale;
	SVGDoc			= LoadEvent.target.ownerDocument;
	g_element		= SVGDoc.getElementById(&quot;layer1&quot;);
}

function setDimension(w,h) {
	SVGDoc.documentElement.setAttribute(&quot;width&quot;, w);
	SVGDoc.documentElement.setAttribute(&quot;height&quot;, h);
}

function setScale(sw, sh) {
	g_element.setAttribute(&quot;transform&quot;, &quot;scale(&quot; + sw + &quot; &quot; + sh +&quot;)&quot;);
}
</script>
  <g
     inkscape:label="Layer 1"
     inkscape:groupmode="layer"
     id="layer1"
     transform="translate(-5.2853732,-124.02082)">
    <path
       style="fill:#76684f;fill-opacity:0.94117647;stroke:#000000;stroke-width:5.1575675;stroke-opacity:1;display:inline"
       d="m 168.50974,411.15331 c -9.1178,-8.54387 -16.57786,-18.89784 -16.57786,-23.00889 0,-16.36666 -41.06089,-58.26251 -57.10165,-58.26272 -11.665846,-1.5e-4 -16.577916,-4.36645 -16.577916,-14.7361 0,-8.10475 -4.8969,-14.73594 -10.88205,-14.73594 -5.98515,0 -16.54398,-9.11781 -23.4641,-20.26187 -6.92016,-11.144 -18.79552,-27.31365 -26.38978,-35.93256 -13.62376,-15.46193 -13.55836,-15.73332 4.90908,-20.36832 10.2943,-2.58368 30.46302,-15.01089 44.81947,-27.61604 23.479096,-20.6149 30.913056,-22.91837 73.963946,-22.91837 35.53729,0 49.50455,-2.93621 54.24276,-11.40292 5.72376,-10.22787 10.58193,-10.08165 47.14532,1.41895 37.3298,11.74167 42.64555,11.84884 63.09897,1.27196 12.2843,-6.35242 38.63044,-11.54986 58.54706,-11.54986 25.60675,0 41.96104,-4.52221 55.84217,-15.44108 34.98677,-27.52063 51.59011,-6.25639 74.80257,95.80093 9.47646,41.66479 10.13127,55.12976 3.09341,63.60993 -12.01275,14.47446 -52.53916,13.60716 -79.20152,-1.69493 -21.66988,-12.4368 -21.72574,-12.41906 -45.25858,14.38343 -12.95911,14.75956 -29.4001,28.6885 -36.53559,30.95324 -7.13544,2.26469 -24.09801,18.96469 -37.6945,37.11102 -26.40411,35.23985 -29.97232,37.19019 -81.04751,44.29938 -27.50948,3.82908 -35.97893,1.96957 -49.7337,-10.91924 l 0,0 z"
       id="path3129" />
  </g>
</svg>
